<?xml version="1.0" encoding="utf-8"?>
<!-- Generator: Adobe Illustrator 17.0.2, SVG Export Plug-In . SVG Version: 6.00 Build 0)  -->
<!DOCTYPE svg PUBLIC "-//W3C//DTD SVG 1.1//EN" "http://www.w3.org/Graphics/SVG/1.1/DTD/svg11.dtd">
<svg version="1.1" id="Layer_1" xmlns="http://www.w3.org/2000/svg" xmlns:xlink="http://www.w3.org/1999/xlink" x="0px" y="0px"
	 width="21.339px" height="31.429px" viewBox="0 0 21.339 31.429" enable-background="new 0 0 21.339 31.429" xml:space="preserve">
<g>
	<path fill="#68C1DB" d="M2.964,14.463c0,3.792,3.085,6.878,6.877,6.878c3.793,0,6.878-3.085,6.878-6.878
		c0-3.793-3.085-6.879-6.878-6.879C6.049,7.584,2.964,10.67,2.964,14.463z M7.197,14.463c0-1.459,1.185-2.646,2.644-2.646
		c1.459,0,2.645,1.186,2.645,2.646c0,1.458-1.187,2.645-2.645,2.645C8.382,17.108,7.197,15.921,7.197,14.463z"/>
	<path fill="#68C1DB" d="M0,31.429h4.233c0-1.804,2.546-4.586,5.926-4.586c3.381,0,5.927,2.782,5.927,4.586h4.233
		c0-4.078-4.438-8.819-10.16-8.819C4.438,22.611,0,27.351,0,31.429z"/>
	<path fill="#68C1DB" d="M17.682,11.022c0.837-0.618,2.032-1.193,3.657-1.329l-0.351-4.218c-2.604,0.216-4.535,1.169-5.91,2.215
		C16.202,8.561,17.103,9.705,17.682,11.022z"/>
	<path fill="#68C1DB" d="M12.722,6.24c0.143-1.032,0.564-2.289,1.602-3.548L11.057,0C9.395,2.016,8.729,4.064,8.519,5.779
		C9.927,5.582,11.374,5.734,12.722,6.24z"/>
	<path fill="#68C1DB" d="M6.118,6.496C5.457,5.692,4.82,4.529,4.6,2.913L0.407,3.483c0.352,2.588,1.404,4.467,2.52,5.786
		C3.738,8.101,4.833,7.143,6.118,6.496z"/>
</g>
</svg>
