<svg xmlns="http://www.w3.org/2000/svg" xml:space="preserve" viewBox="0 0 100 100" version="1.1" y="0px" x="0px" xmlns:xlink="http://www.w3.org/1999/xlink" enable-background="new 0 0 100 100">
	<path d="m86 63c-0.3-1.5-0.75-2.9-0.93-4.4s0.038-3.1 0.059-4.7c0-0.042-0.013-0.069-0.019-0.1 0.006-0.036 0.019-0.062 0.019-0.098-0.009-1.6 0.41-3.4 0.11-5s-1.1-3.1-1.4-4.7c0.001-0.011 0.009-0.021 0.009-0.031 0.06-1.4 0.26-2.7 0.76-4.1 0.27-0.73 0.5-1.5 0.58-2.3 0.14-1.4-0.66-1.7-1.5-1.2-0.12-0.58-0.31-1-0.72-1.5-0.16-0.19-0.52-0.22-0.72-0.088 0.056-0.04-1.6-0.63-1.9-0.62-0.25 0.012-1.3-0.82-1.6-0.92-0.61-0.16-1.1 0.099-1.6-0.38-0.46-0.44-1.7-0.034-2.3-0.034-0.64 0.002-0.74 0.45-1.5 0.033-0.65-0.38-1.4-0.42-2-0.89-0.082-0.062-0.16-0.091-0.24-0.11-0.014-0.004-0.021-0.018-0.038-0.02-3.1-1.1-6.1-4.7-9.6-3.6-0.19-0.47-0.35-0.94-0.44-1.4-0.14-0.6-0.96-0.52-1.1 0.004-0.098 0.3-0.18 0.59-0.25 0.89-1.2-0.79-2.5-1.3-3.9-1.6-2.3-0.6-5.4 0.12-7.3-1.6-0.23-0.21-0.61-0.24-0.83 0-0.84 0.93-2.7-0.5-3.7-0.44-1.9 0.13-3.7 1.7-5.6 0.83-0.3-0.14-0.62-0.085-0.81 0.22-0.71 1.1-2.2 0.24-2.9 1.5-0.87 1.5-1.4 0.89-3 0.73-0.31-0.032-0.61 0.29-0.59 0.59 0.15 0.37 0.075 0.67-0.22 0.9-0.32 0.034-0.59 0.24-0.59 0.59 0 0.72-1.2 1.4-1.5 1.9-0.46 0.79-0.45 0.86-1.5 0.79-0.96-0.067-1.7-0.28-2.7-0.2-0.34 0.03-0.55 0.24-0.58 0.59-0.1 1.2-0.89 2.1-1.6 2.8-0.24 0.24-0.35 0.78-0.25 1.1 0.29 0.94-0.33 0.81-1.1 1.1-0.38 0.14-0.52 0.51-0.35 0.86 0.43 0.88-0.24 2.3-0.43 3.2-0.4 1.9-1.2 3.1-2.5 4.5-1.6 1.7-3.2 3.1-4.4 5.1-0.36 0.6 0.44 1.1 0.92 0.71 3-2.6 2.3 1.1 2.2 2.7-0.023 0.39 0.39 0.66 0.74 0.56 0.52-0.14 0.75-0.21 1-0.32 0.22 2.1-0.85 4.2 0.16 6.3 0.18 0.36 0.66 0.34 0.92 0.12 0.78-0.67 1.3-1.2 2-0.47 0.092 0.089 0.23 0.2 0.37 0.28 2.1 2 3.5 4.8 6.7 4.8 1.1 0.001 2 0.44 3.2 0.47 1.9 0.048 3.6-0.41 5.4-0.96 0.86-0.26 1.7-0.52 2.6-0.75 1.7-0.44 2.8 0.24 4.3 0.57 1.8 0.38 3.4-0.6 5.3-0.16 1.4 0.33 2.9-0.2 4.3-0.24 1.1-0.03 1.8-0.92 3.1-0.29 0.27 0.13 0.65 0.082 0.8-0.22 0.21-0.4 3 0.22 3.9-0.3 0.85-0.54 1.7-0.28 2.5-0.71 1-0.54 2.1-0.87 3.1-1.4 6.3-1.3 13-0.1 18 3 0.024 0.014 0.046 0.014 0.071 0.024 0.023 0.015 0.037 0.031 0.063 0.042 0.58 0.25 1.8 0.62 2-0.3 4-7 3-7 3-8zm-20-2c-0.14 0.034-0.24 0.11-0.31 0.2-1.1 0.55-3 1.4-4 1.4-1 0.034-1.4 1-2.6 0.77-1.2-0.24-2.1-0.77-2.8 0.068-0.64-0.39-1-0.73-2-0.62-1 0.13-1.5 1.1-2.8 0.95-0.42-0.042-1.1 0.27-1.4 0.39-1.6 0.51-0.99-0.31-1.7-0.32-2.4-0.02-4.4 0.58-6.7-0.22-2.9-0.98-6.7 1.5-9.6 1.8-1.5 0.13-2.3-0.89-3.6-0.66-2.7 0.46-4.2-2.1-5.9-3.9 0.09-0.094 0.18-0.2 0.28-0.35 0.81-1.2 2.6-1.6 3.8-2.2 1.2-0.62 2.4-1 3.6-1.6 1.5-0.64 1.7 0.53 2.9 0.53 2.3-0.002 3.6-3.3 5.8-2.9 0.75 0.14 1.8-0.29 2.5-0.54 0.77-0.3 0.61-0.2 1.3-0.006 0.97 0.27 2-0.12 2.8-0.45 1.4-0.53 2.7-0.72 4.2-1 1.2-0.27 2.5-0.62 3.6-1.1 1.1-0.76 2.4-0.96 3.7-0.6 0.33 0.084 0.72 0.051 1-0.037 0.5-0.14 0.88-0.83 1.2-1.2 1.2-1.7 4-1.9 5.9-2.7 0.32-0.12 0.6-0.54 0.35-0.86 0.019 0.016 0.038 0.035 0.055 0.056 0.41-0.063 0.49-0.56 0.35-0.87-0.16-0.36-0.37-0.66-0.59-0.95 0.19 0 0.4-0.026 0.66-0.1 0.18-0.054 0.38-0.22 0.41-0.41 0.12-0.84-0.61-1.6 0.58-1.8 0.7-0.14 1-1.1 1-1.7 0.002-1.8 3.1-3.2 4.9-2.5 0.28 0.095 0.67-0.11 0.72-0.42 0.33-0.37 0.66-0.74 0.98-1.1 0.37-0.008 0.69-0.37 0.56-0.74 0.31-0.51 0.73-0.71 1.3-0.61 0.12 0 0.21-0.036 0.3-0.088 0.006 0.006 0.008 0.006 0.013 0.006 1.2 0.72 5.4 1.1 5.6 2.5 0.036 0.26 0.2 0.42 0.4 0.5 0.02 0.16 0.13 0.3 0.27 0.41-0.58 0.85-0.83 1.8-1 2.9-0.11 0.57 0.53 0.89 0.9 0.66-0.21 0.93-0.35 1.9-0.39 2.9-0.003 0.053 0.016 0.095 0.024 0.15-0.002 0.046-0.01 0.092-0.002 0.14 0.26 1.4 0.92 2.7 1.3 4.1 0.47 1.7-0.047 3.6-0.037 5.3 0 0.037 0.017 0.069 0.022 0.1-0.005 0.033-0.02 0.062-0.022 0.098-0.027 1.8-0.19 3.5 0.014 5.3 0.16 1.4 0.62 2.8 0.91 4.2-4 0-11-1-17 0z" fill="#1F1E21"/>
	<path d="m71 44c-0.47-1.3-0.94-2.9-0.32-4.1 0.49-0.97 1.8-1.2 2.6-0.48 0.67 0.63 0.86 1.7 0.88 2.6-2-1-3 0-4 1z" fill="#1F1E21"/>
	<path d="m76 50c-0.76 0.002-0.76 1.2 0.002 1.2 1 0 1-1 0-1z" fill="#1F1E21"/>
	<path d="m80 53c-1.2 1.9-4.8 1.8-6.3 0.43-0.56-0.5-1.4 0.33-0.83 0.84 2.1 1.9 6.5 1.9 8.2-0.68 0 0-1-1-1 0z" fill="#1F1E21"/>
	<path d="m37 70c-2.8 1.2-6.7-0.79-7.6-3.5-0.43-1.3-0.11-2.9 0.26-4.2 0.49-1.7 2-2.1 3.3-2.8 0.071-0.041 0.12-0.091 0.16-0.14 8-2 12 9 5 11z" fill="#010101"/>
	<path d="m67 70c-2.8 1.2-6.7-0.79-7.6-3.5-0.44-1.3-0.11-2.9 0.26-4.2 0.49-1.7 2-2.1 3.3-2.8 0.068-0.04 0.12-0.091 0.16-0.14 8-2 12 9 5 11z" fill="#010101"/>
	<path d="m74 61c-0.001-0.006-0.001-0.009-0.003-0.016-0.7-1.4-2.4-2.2-2.5-3.9-0.014-0.76-1.2-0.76-1.2 0.001 0.017 0.88 0.39 1.7 0.88 2.4 0.53 0.77 1.3 1.3 1.8 2.1 0.26 0.52 0.92 0.29 1.1-0.16 1 1 0 0-1 0z" fill="#1F1E21"/>
	<g fill="#fff">
		<path d="m69 35c-0.35-0.53-0.8-0.97-1.2-1.5-0.42-0.63-1.4-0.036-1 0.6 0.35 0.52 0.81 0.96 1.2 1.5 1 0 2 0 1-1z"/>
		<path d="m66 37c-0.34-0.18-0.62-0.39-0.9-0.65-0.55-0.53-1.4 0.31-0.83 0.83 0.34 0.33 0.72 0.61 1.1 0.84 1 1 1 0 1-1z"/>
		<path d="m63 39c-0.63-0.079-1.3-0.2-1.9-0.27-0.75-0.082-0.74 1.1 0.002 1.2 0.64 0.077 1.3 0.2 1.9 0.27 1 1 1 0 0-1z"/>
		<path d="m61 43c-1.1 0.011-2.2 0.16-3.3 0.36-0.75 0.14-0.43 1.3 0.32 1.1 1-0.19 2-0.31 3-0.32v-1z"/>
		<path d="m55 46c-1.6 0.4-3.1 0.91-4.8 1-0.76 0.045-0.76 1.2 0.002 1.2 1.8-0.099 3.4-0.62 5.1-1 1 0 1-1 0-1z"/>
		<path d="m37 51c-0.48 0.58-1.1 0.93-1.8 1.3-0.68 0.34-0.08 1.4 0.6 1 0.74-0.38 1.5-0.8 2-1.4 0-1 0-2-1-1z"/>
		<path d="m30 52c-0.52 0.5-1.2 0.81-1.8 1.2-0.63 0.41-0.042 1.4 0.6 1 0.68-0.45 1.4-0.81 2-1.4 1-1 0-2-1-1z"/>
		<path d="m22 56c-0.2 0.16-0.36 0.35-0.54 0.54-0.52 0.56 0.31 1.4 0.83 0.83 0.18-0.19 0.34-0.38 0.54-0.54 1-1 0-2-1-1z"/>
		<path d="m23 50c-1 0.49-2.1 0.75-3 1.5-0.6 0.47 0.24 1.3 0.83 0.83 0.79-0.62 1.8-0.84 2.7-1.3 0-1-1-2-1-2z"/>
		<path d="m22 46c-1 0.78-2 1.5-3.2 2-0.69 0.29-0.39 1.4 0.32 1.1 1.3-0.54 2.4-1.3 3.5-2.2 1 0 0-1 0-1z"/>
		<path d="m27 38c-1.1 0.084-2.1 0.29-3.1 0.64-0.71 0.25-0.4 1.4 0.32 1.1 0.9-0.31 1.8-0.52 2.8-0.59v-1z"/>
		<path d="m34 33c-1.1-0.072-2.3-0.24-3.4-0.13-0.75 0.072-0.75 1.2 0 1.2 1.1-0.11 2.3 0.054 3.4 0.13 1 0 1-1 0-1z"/>
		<path d="m40 30c-0.68-0.23-1.3-0.69-1.9-1-0.67-0.35-1.3 0.67-0.59 1 0.73 0.38 1.4 0.87 2.2 1.1 1 1 2-1 1-1z"/>
		<path d="m46 30c-0.43-0.84-1.2-1.4-2-1.9-0.65-0.4-1.2 0.62-0.59 1 0.63 0.38 1.2 0.81 1.6 1.5 0 1 1 0 1 0z"/>
		<path d="m51 28c-0.42-0.63-1.4-0.039-1 0.59 0.28 0.42 0.43 0.82 0.4 1.3-0.052 0.76 1.1 0.75 1.2-0.001v-2z"/>
		<path d="m59 30c-0.099-0.24-0.28-0.45-0.57-0.43l-0.079 0.004c-0.5 0.022-0.66 0.54-0.5 0.88-0.09 0.71 0.99 0.99 1.1 0.26v-1z"/>
		<path d="m56 34c-1.8-0.64-3.6-1.6-5.5-2-0.74-0.16-1.1 0.98-0.31 1.1 1.9 0.4 3.6 1.4 5.5 2 1 1 1 0 0-1z"/>
		<path d="m46 35c-3.1-0.25-6.2-0.33-9.3-0.33-0.76 0-0.76 1.2 0.002 1.2 3.1 0 6.2 0.075 9.3 0.32 1 0 1-1 0-1z"/>
		<path d="m38 37c-1.2 0.3-2.3 0.32-3.5 0.52-1.4 0.23-2.7 0.64-4.1 0.83-0.74 0.1-0.75 1.3 0.002 1.2 1.1-0.15 2.2-0.43 3.3-0.67 1.5-0.34 3.1-0.33 4.6-0.72 1 0 1-1 0-1z"/>
		<path d="m33 41c-2.4 1.1-4.9 2-7.2 3.4-0.65 0.38-0.059 1.4 0.6 1 2.3-1.3 4.8-2.3 7.2-3.4 0 0 0-1-1-1z"/>
		<path d="m31 45c-0.8 0.39-1.6 0.75-2.4 1.2-0.7 0.43-1.2 1.2-1.9 1.6-0.67 0.35-0.077 1.4 0.6 1 0.64-0.34 1.1-0.86 1.6-1.3 0.71-0.67 1.8-1 2.6-1.4 0-2-1-3-2-2z"/>
		<path d="m38 46c-2.1 0.29-4 1.3-5.9 2.1-0.69 0.3-0.091 1.3 0.6 1 1.7-0.75 3.4-1.7 5.3-2 1 0 1-2 0-1z"/>
		<path d="m46 47c-1.9 0.29-3.9 0.53-5.8 1.2-0.7 0.26-0.4 1.4 0.32 1.1 1.8-0.7 3.8-0.94 5.8-1.2 1 0 0-1 0-1z"/>
		<path d="m46 42c-2.5-0.13-5.1-0.15-7.6 0.5-0.73 0.2-0.42 1.3 0.31 1.1 2.4-0.63 4.9-0.6 7.3-0.46 2 0 2-1 1-1z"/>
		<path d="m52 38c-2 0-4.1-0.018-6.1 0.3-0.75 0.12-0.43 1.3 0.31 1.1 1.9-0.3 3.9-0.26 5.8-0.26 1 1 1-1 0-1z"/>
		<path d="m58 38c-0.74-0.036-1.4-0.37-2.2-0.4-0.76-0.036-0.76 1.1 0.001 1.2 0.74 0.033 1.4 0.37 2.2 0.4v-1z"/>
		<path d="m65 34c-1.9-0.42-3.9-0.61-5.9-0.55-0.76 0.02-0.76 1.2 0.003 1.2 1.9-0.057 3.8 0.11 5.6 0.51 0 0 1-1 0-1z"/>
		<path d="m58 41c-2.5 0.58-5.1 0.79-7.6 1.4-0.74 0.19-0.42 1.3 0.31 1.1 2.5-0.64 5.1-0.85 7.6-1.4 1 0 1-1 0-1z"/>
		<path d="m48 44c-1.2 0.12-2.4 0.36-3.6 0.62-1.2 0.25-2.4 0.27-3.6 0.75-0.69 0.3-0.093 1.3 0.6 1 0.82-0.35 1.9-0.36 2.8-0.54 1.3-0.25 2.5-0.55 3.8-0.68v-1z"/>
		<path d="m41 40c-1 0.23-2.1 0.28-3.1 0.39-0.75 0.086-0.75 1.3 0.002 1.2 1.1-0.12 2.3-0.18 3.4-0.43 1 0 1-2 0-1z"/>
		<path d="m53 36c-0.3-0.071-0.6-0.086-0.9-0.086-0.17 0-0.29 0.064-0.38 0.15-0.62-0.009-1.2-0.097-1.8-0.14-0.76-0.059-0.75 1.1 0.001 1.2 1.1 0.081 2.1 0.24 3.1 0.039v-1z"/>
		<path d="m57 31c-0.67-0.56-1.5-0.87-2.2-1.3-0.66-0.38-1.2 0.64-0.59 1 0.66 0.38 1.4 0.64 2 1.1 0 1 1 0 1-1z"/>
		<path d="m47 33c-1.1-0.29-2.1-0.92-3.3-1.1-0.74-0.1-1.1 1-0.31 1.1 1.2 0.16 2.2 0.79 3.3 1.1v-1z"/>
		<path d="m33 36c-1.9-0.24-3.7-0.013-5.6 0.009-0.76 0.01-0.76 1.2 0.001 1.2 1.9-0.021 3.8-0.25 5.6-0.009 1 0 1-1 0-1z"/>
		<path d="m26 41c-1.3-0.018-2.2 0.82-3.2 1.4-0.65 0.39-0.06 1.4 0.59 1 0.83-0.49 1.6-1.3 2.6-1.3 0 0 0-1-1-1z"/>
		<path d="m28 50c-1.3 0.77-2.6 1.6-3.9 2.4-0.64 0.4-0.045 1.4 0.6 1 1.3-0.82 2.6-1.6 3.9-2.4l-1-1z"/>
	</g>
</svg>
