<?xml version="1.0" encoding="UTF-8" standalone="no"?>
<!DOCTYPE svg  PUBLIC '-//W3C//DTD SVG 1.1//EN'  'http://www.w3.org/Graphics/SVG/1.1/DTD/svg11.dtd'>
<svg xmlns="http://www.w3.org/2000/svg" xml:space="preserve" viewBox="0 0 100 100" version="1.1" y="0px" x="0px" xmlns:xlink="http://www.w3.org/1999/xlink" enable-background="new 0 0 100 100">
<g>
	<path d="m85.8 63.3c-0.305-1.48-0.752-2.92-0.926-4.41-0.175-1.54 0.038-3.12 0.059-4.66 0-0.042-0.013-0.069-0.019-0.104 0.006-0.036 0.019-0.062 0.019-0.098-0.009-1.65 0.41-3.39 0.107-5.02-0.303-1.61-1.1-3.06-1.41-4.66 0.001-0.011 0.009-0.021 0.009-0.031 0.06-1.45 0.256-2.74 0.761-4.09 0.27-0.73 0.501-1.51 0.58-2.29 0.143-1.35-0.655-1.69-1.55-1.22-0.116-0.584-0.311-1-0.725-1.52-0.155-0.191-0.517-0.225-0.715-0.088 0.056-0.04-1.65-0.629-1.9-0.616-0.25 0.012-1.26-0.817-1.63-0.925-0.609-0.164-1.06 0.099-1.56-0.385-0.459-0.441-1.74-0.034-2.31-0.034-0.637 0.002-0.739 0.452-1.47 0.033-0.651-0.378-1.39-0.424-2.01-0.889-0.082-0.062-0.161-0.091-0.239-0.106-0.014-0.004-0.021-0.018-0.038-0.02-3.08-1.08-6.08-4.67-9.55-3.6-0.191-0.466-0.347-0.943-0.441-1.44-0.144-0.597-0.959-0.521-1.13 0.004-0.098 0.295-0.181 0.592-0.254 0.886-1.2-0.787-2.48-1.26-3.92-1.65-2.29-0.598-5.43 0.119-7.26-1.57-0.226-0.211-0.611-0.245-0.831 0-0.839 0.929-2.74-0.504-3.7-0.436-1.86 0.129-3.69 1.66-5.57 0.832-0.301-0.135-0.621-0.085-0.807 0.217-0.707 1.13-2.17 0.237-2.9 1.49-0.869 1.49-1.42 0.891-3 0.726-0.308-0.032-0.607 0.294-0.588 0.587 0.146 0.366 0.075 0.666-0.221 0.898-0.316 0.034-0.587 0.242-0.586 0.587 0 0.722-1.16 1.41-1.47 1.94-0.465 0.794-0.453 0.858-1.54 0.786-0.956-0.067-1.72-0.285-2.68-0.195-0.341 0.03-0.554 0.244-0.585 0.589-0.104 1.18-0.892 2.13-1.62 2.84-0.241 0.239-0.347 0.781-0.247 1.1 0.292 0.937-0.326 0.81-1.14 1.1-0.377 0.135-0.525 0.506-0.349 0.863 0.429 0.882-0.241 2.3-0.429 3.17-0.399 1.87-1.25 3.1-2.54 4.48-1.56 1.67-3.24 3.09-4.43 5.06-0.365 0.602 0.435 1.13 0.924 0.712 3.02-2.57 2.27 1.14 2.18 2.69-0.023 0.387 0.393 0.66 0.745 0.564 0.519-0.144 0.746-0.208 1.01-0.317 0.221 2.12-0.85 4.16 0.163 6.26 0.176 0.364 0.657 0.343 0.924 0.115 0.784-0.67 1.26-1.2 1.99-0.47 0.092 0.089 0.226 0.197 0.372 0.279 2.05 2.01 3.54 4.81 6.71 4.82 1.14 0.001 2.02 0.443 3.18 0.471 1.9 0.048 3.62-0.408 5.42-0.956 0.861-0.261 1.72-0.521 2.59-0.748 1.68-0.435 2.76 0.244 4.29 0.574 1.78 0.385 3.42-0.599 5.26-0.16 1.41 0.334 2.86-0.204 4.32-0.241 1.1-0.03 1.8-0.925 3.09-0.287 0.274 0.131 0.649 0.082 0.803-0.216 0.209-0.398 3.05 0.217 3.87-0.305 0.849-0.54 1.68-0.275 2.49-0.713 1.02-0.541 2.1-0.874 3.13-1.4 6.33-1.32 12.7-0.104 18.3 2.97 0.024 0.014 0.046 0.014 0.071 0.024 0.023 0.015 0.037 0.031 0.063 0.042 0.575 0.254 1.79 0.622 2.03-0.299-0.4-1-1.1-1.4-1.8-1.7zm-19.8-2.3c-0.144 0.034-0.238 0.107-0.307 0.197-1.08 0.547-3 1.38-4.05 1.42-0.997 0.034-1.44 1-2.55 0.767-1.17-0.242-2.06-0.766-2.78 0.068-0.637-0.392-1.04-0.734-1.95-0.617-1.04 0.134-1.52 1.08-2.8 0.947-0.416-0.042-1.07 0.269-1.45 0.391-1.56 0.509-0.993-0.313-1.74-0.315-2.35-0.02-4.38 0.585-6.72-0.223-2.86-0.981-6.69 1.52-9.57 1.77-1.49 0.127-2.26-0.886-3.61-0.663-2.72 0.456-4.24-2.07-5.88-3.87 0.09-0.094 0.184-0.204 0.284-0.347 0.808-1.16 2.6-1.56 3.82-2.21 1.16-0.619 2.36-1.04 3.56-1.55 1.49-0.637 1.68 0.529 2.89 0.528 2.26-0.002 3.6-3.3 5.84-2.86 0.754 0.144 1.8-0.288 2.47-0.542 0.767-0.295 0.614-0.195 1.31-0.006 0.974 0.269 1.95-0.121 2.85-0.451 1.42-0.528 2.74-0.722 4.21-1.04 1.23-0.274 2.46-0.618 3.61-1.14 1.14-0.761 2.37-0.96 3.71-0.6 0.329 0.084 0.718 0.051 1.04-0.037 0.502-0.138 0.882-0.826 1.15-1.2 1.23-1.7 4.04-1.95 5.86-2.66 0.316-0.124 0.603-0.535 0.349-0.865 0.019 0.016 0.038 0.035 0.055 0.056 0.414-0.063 0.487-0.56 0.349-0.87-0.161-0.365-0.366-0.665-0.59-0.948 0.194 0 0.405-0.026 0.656-0.103 0.178-0.054 0.381-0.215 0.411-0.414 0.118-0.844-0.613-1.59 0.585-1.84 0.7-0.144 1-1.08 1-1.67 0.002-1.77 3.13-3.15 4.89-2.55 0.278 0.095 0.673-0.108 0.722-0.415 0.329-0.372 0.655-0.745 0.983-1.12 0.371-0.008 0.687-0.37 0.564-0.745 0.309-0.507 0.728-0.711 1.26-0.606 0.121 0 0.214-0.036 0.298-0.088 0.006 0.006 0.008 0.006 0.013 0.006 1.22 0.719 5.4 1.07 5.58 2.45 0.036 0.257 0.2 0.415 0.396 0.497 0.02 0.165 0.131 0.301 0.272 0.407-0.583 0.85-0.832 1.83-1.03 2.85-0.114 0.574 0.532 0.888 0.904 0.661-0.213 0.926-0.347 1.85-0.391 2.87-0.003 0.053 0.016 0.095 0.024 0.146-0.002 0.046-0.01 0.092-0.002 0.144 0.265 1.43 0.915 2.73 1.31 4.12 0.473 1.66-0.047 3.61-0.037 5.3 0 0.037 0.017 0.069 0.022 0.104-0.005 0.033-0.02 0.062-0.022 0.098-0.027 1.77-0.191 3.52 0.014 5.28 0.163 1.41 0.624 2.79 0.91 4.18-5.8-3.2-12.3-4.3-18.7-2.9z" fill="#1F1E21"/>
	<path d="m71.4 43.9c-0.466-1.33-0.945-2.91-0.324-4.14 0.486-0.968 1.84-1.18 2.58-0.483 0.669 0.626 0.858 1.68 0.885 2.57-1.3 0.4-2.3 1.1-3.2 2z" fill="#1F1E21"/>
	<path d="m76.1 49.9c-0.758 0.002-0.757 1.18 0.002 1.18 0.7 0 0.7-1.2 0-1.2z" fill="#1F1E21"/>
	<path d="m80 52.8c-1.2 1.87-4.78 1.82-6.32 0.434-0.562-0.505-1.4 0.328-0.83 0.836 2.13 1.9 6.54 1.86 8.17-0.677 0.3-0.5-0.7-1.1-1.1-0.5z" fill="#1F1E21"/>
	<path d="m37.2 70.4c-2.82 1.16-6.68-0.786-7.61-3.52-0.433-1.27-0.106-2.94 0.257-4.17 0.494-1.67 1.95-2.06 3.29-2.84 0.071-0.041 0.12-0.091 0.161-0.142 6.2-2.7 10.2 7.9 3.8 10.6z" fill="#010101"/>
	<path d="m67.1 70.3c-2.82 1.16-6.68-0.786-7.61-3.52-0.436-1.28-0.108-2.94 0.255-4.17 0.492-1.67 1.95-2.06 3.29-2.84 0.068-0.04 0.118-0.091 0.16-0.142 6.3-2.7 10.2 8 3.8 10.6z" fill="#010101"/>
	<path d="m73.9 60.7c-0.001-0.006-0.001-0.009-0.003-0.016-0.704-1.37-2.44-2.23-2.47-3.92-0.014-0.757-1.19-0.757-1.18 0.001 0.017 0.88 0.39 1.66 0.882 2.38 0.529 0.766 1.32 1.3 1.75 2.14 0.265 0.52 0.922 0.286 1.06-0.157 1.8 1.3 0.6 0.2 0-0.4z" fill="#1F1E21"/>
	<g fill="#fff">
		<path d="m69.3 35c-0.349-0.526-0.804-0.966-1.15-1.49-0.42-0.631-1.44-0.036-1.02 0.597 0.349 0.525 0.807 0.962 1.15 1.49 0.3 0.6 1.3 0 0.9-0.6z"/>
		<path d="m65.7 37.3c-0.335-0.179-0.622-0.387-0.898-0.65-0.546-0.526-1.38 0.306-0.83 0.833 0.341 0.331 0.715 0.61 1.14 0.835 0.7 0.4 1.3-0.6 0.6-0.9z"/>
		<path d="m63.3 39.5c-0.634-0.079-1.26-0.197-1.9-0.269-0.753-0.082-0.742 1.1 0.002 1.18 0.636 0.077 1.26 0.195 1.9 0.273 0.8 0.1 0.7-1.1 0-1.2z"/>
		<path d="m60.7 43c-1.13 0.011-2.24 0.162-3.34 0.365-0.747 0.137-0.428 1.27 0.315 1.13 1-0.187 2-0.312 3.02-0.323 0.7-0.1 0.7-1.3 0-1.2z"/>
		<path d="m55.1 46c-1.59 0.396-3.14 0.909-4.78 1-0.755 0.045-0.756 1.22 0.002 1.18 1.76-0.099 3.4-0.625 5.1-1.04 0.8-0.3 0.4-1.4-0.3-1.2z"/>
		<path d="m37.1 50.7c-0.48 0.58-1.11 0.934-1.78 1.27-0.676 0.341-0.08 1.36 0.596 1.01 0.745-0.378 1.48-0.798 2.01-1.45 0.5-0.7-0.3-1.5-0.8-0.9z"/>
		<path d="m30.1 51.9c-0.525 0.495-1.18 0.808-1.78 1.2-0.633 0.412-0.042 1.43 0.597 1.02 0.684-0.448 1.41-0.814 2.01-1.38 0.6-0.5-0.2-1.3-0.8-0.8z"/>
		<path d="m22.3 55.7c-0.201 0.16-0.362 0.352-0.538 0.541-0.52 0.556 0.313 1.39 0.833 0.833 0.175-0.191 0.337-0.383 0.54-0.544 0.6-0.4-0.2-1.2-0.8-0.8z"/>
		<path d="m22.7 50.1c-1.01 0.486-2.07 0.749-2.96 1.46-0.595 0.466 0.245 1.29 0.832 0.828 0.789-0.62 1.83-0.837 2.72-1.27 0.7-0.3 0.1-1.3-0.5-1z"/>
		<path d="m21.6 46.5c-1.02 0.778-2.04 1.55-3.24 2.04-0.689 0.287-0.386 1.42 0.315 1.14 1.3-0.544 2.41-1.31 3.52-2.17 0.6-0.4 0-1.4-0.6-0.9z"/>
		<path d="m26.7 38.3c-1.05 0.084-2.07 0.29-3.07 0.638-0.71 0.248-0.404 1.38 0.316 1.13 0.898-0.314 1.81-0.522 2.75-0.594 0.8 0 0.8-1.2 0.1-1.1z"/>
		<path d="m34.1 33c-1.13-0.072-2.25-0.237-3.39-0.128-0.75 0.072-0.754 1.25 0 1.18 1.14-0.108 2.26 0.054 3.39 0.129 0.8 0.1 0.8-1.1 0-1.2z"/>
		<path d="m39.8 30.1c-0.681-0.228-1.26-0.688-1.89-1.02-0.671-0.347-1.27 0.667-0.593 1.02 0.73 0.381 1.39 0.874 2.17 1.14 0.7 0.3 1-0.8 0.3-1.1z"/>
		<path d="m45.7 29.8c-0.427-0.845-1.18-1.42-1.98-1.9-0.651-0.395-1.24 0.625-0.593 1.02 0.63 0.385 1.21 0.807 1.55 1.48 0.4 0.7 1.4 0.1 1.1-0.6z"/>
		<path d="m50.8 27.8c-0.421-0.626-1.44-0.039-1.02 0.594 0.277 0.419 0.43 0.823 0.396 1.33-0.052 0.756 1.13 0.75 1.18-0.001 0-0.7-0.2-1.3-0.6-1.9z"/>
		<path d="m59.3 30.2c-0.099-0.237-0.284-0.448-0.568-0.432l-0.079 0.004c-0.504 0.022-0.663 0.542-0.496 0.884-0.09 0.706 0.993 0.993 1.13 0.265 0.2-0.3 0.2-0.5 0.1-0.8z"/>
		<path d="m56.1 34.4c-1.84-0.643-3.56-1.62-5.49-2.02-0.74-0.156-1.05 0.978-0.31 1.13 1.92 0.403 3.65 1.38 5.49 2.03 0.7 0.3 1-0.9 0.3-1.1z"/>
		<path d="m45.8 35.1c-3.09-0.246-6.18-0.326-9.28-0.326-0.758 0-0.756 1.18 0.002 1.18 3.1 0 6.19 0.075 9.28 0.322 0.8 0.1 0.8-1.1 0-1.2z"/>
		<path d="m38.4 37.4c-1.15 0.295-2.31 0.323-3.48 0.518-1.37 0.233-2.7 0.642-4.08 0.828-0.742 0.1-0.748 1.28 0.002 1.18 1.12-0.152 2.2-0.426 3.29-0.672 1.52-0.343 3.08-0.329 4.58-0.716 0.8-0.2 0.5-1.3-0.3-1.1z"/>
		<path d="m33.1 40.8c-2.42 1.13-4.93 2.04-7.24 3.4-0.653 0.382-0.059 1.4 0.597 1.02 2.31-1.35 4.82-2.27 7.24-3.4 0.7-0.3 0.1-1.3-0.6-1z"/>
		<path d="m31.4 44.8c-0.798 0.394-1.61 0.752-2.37 1.22-0.705 0.434-1.15 1.17-1.89 1.56-0.673 0.354-0.077 1.37 0.595 1.02 0.637-0.336 1.11-0.856 1.63-1.34 0.712-0.668 1.77-1.02 2.64-1.45 0.8-0.3 0.2-1.4-0.5-1z"/>
		<path d="m37.8 45.6c-2.13 0.287-3.97 1.28-5.92 2.12-0.694 0.304-0.091 1.31 0.596 1.01 1.73-0.751 3.42-1.7 5.32-1.96 0.8-0.1 0.8-1.2 0-1.1z"/>
		<path d="m45.8 47.5c-1.94 0.292-3.91 0.532-5.76 1.23-0.701 0.265-0.396 1.4 0.316 1.14 1.84-0.704 3.81-0.94 5.76-1.23 0.7-0.1 0.4-1.2-0.3-1.1z"/>
		<path d="m46 41.8c-2.53-0.133-5.14-0.152-7.6 0.505-0.733 0.195-0.42 1.33 0.312 1.14 2.36-0.629 4.87-0.595 7.29-0.462 0.7 0.1 0.7-1.1 0-1.1z"/>
		<path d="m52.3 38.4c-2.05 0-4.08-0.018-6.12 0.299-0.749 0.122-0.426 1.25 0.314 1.13 1.92-0.301 3.87-0.258 5.8-0.258 0.8 0.1 0.8-1.1 0-1.1z"/>
		<path d="m57.7 37.6c-0.738-0.036-1.42-0.368-2.17-0.405-0.76-0.036-0.755 1.14 0.001 1.18 0.739 0.033 1.42 0.368 2.17 0.404 0.7 0 0.7-1.2 0-1.2z"/>
		<path d="m65 33.6c-1.94-0.421-3.93-0.609-5.91-0.549-0.758 0.02-0.757 1.2 0.003 1.18 1.88-0.057 3.76 0.108 5.6 0.509 0.7 0.1 1.1-1 0.3-1.2z"/>
		<path d="m57.9 41.4c-2.51 0.584-5.09 0.794-7.58 1.43-0.737 0.19-0.422 1.33 0.312 1.14 2.5-0.641 5.08-0.852 7.59-1.43 0.7-0.1 0.4-1.3-0.3-1.1z"/>
		<path d="m47.5 44.4c-1.23 0.125-2.43 0.365-3.64 0.625-1.19 0.254-2.45 0.272-3.57 0.754-0.694 0.3-0.093 1.31 0.595 1.02 0.816-0.352 1.93-0.365 2.8-0.535 1.27-0.252 2.52-0.553 3.81-0.685 0.8-0.1 0.8-1.3 0-1.2z"/>
		<path d="m41.4 39.6c-1.02 0.229-2.06 0.275-3.1 0.391-0.746 0.086-0.752 1.26 0.002 1.18 1.14-0.125 2.28-0.178 3.41-0.432 0.8-0.2 0.4-1.3-0.3-1.2z"/>
		<path d="m52.9 35.5c-0.299-0.071-0.595-0.086-0.901-0.086-0.167 0-0.291 0.064-0.384 0.149-0.618-0.009-1.24-0.097-1.85-0.144-0.757-0.059-0.749 1.12 0.001 1.18 1.06 0.081 2.08 0.237 3.14 0.039 0.6 0 0.5-0.9 0-1.1z"/>
		<path d="m56.7 31.2c-0.672-0.562-1.47-0.871-2.22-1.3-0.66-0.382-1.25 0.638-0.592 1.02 0.656 0.375 1.4 0.635 1.98 1.12 0.6 0.5 1.4-0.3 0.8-0.8z"/>
		<path d="m46.6 32.8c-1.14-0.293-2.15-0.915-3.32-1.08-0.742-0.102-1.06 1.03-0.31 1.14 1.17 0.162 2.19 0.786 3.32 1.08 0.7 0.3 1-0.9 0.3-1.1z"/>
		<path d="m32.9 36c-1.87-0.242-3.75-0.013-5.62 0.009-0.759 0.01-0.759 1.19 0.001 1.18 1.88-0.021 3.75-0.252 5.62-0.009 0.7 0 0.7-1.1 0-1.2z"/>
		<path d="m26.1 41.3c-1.28-0.018-2.17 0.818-3.21 1.44-0.651 0.388-0.06 1.4 0.593 1.01 0.826-0.49 1.6-1.29 2.62-1.28 0.8 0 0.8-1.1 0-1.1z"/>
		<path d="m27.7 50.3c-1.32 0.773-2.63 1.56-3.93 2.38-0.639 0.405-0.045 1.42 0.598 1.01 1.29-0.815 2.6-1.6 3.92-2.37 0.6-0.3 0-1.3-0.6-1z"/>
	</g>
</g>
</svg>
