<?xml version="1.0" encoding="UTF-8" standalone="no"?>
<!DOCTYPE svg  PUBLIC '-//W3C//DTD SVG 1.1//EN'  'http://www.w3.org/Graphics/SVG/1.1/DTD/svg11.dtd'>
<svg xmlns="http://www.w3.org/2000/svg" xml:space="preserve" viewBox="0 0 100 100" version="1.1" y="0px" x="0px" xmlns:xlink="http://www.w3.org/1999/xlink" enable-background="new 0 0 100 100">
	<path d="m9e1 6e1l-0.9-4c-0.2-2 0.04-3 0.06-5 0-0.04-0.01-0.07-0.02-0.1 0.006-0.04 0.02-0.06 0.02-0.1-0.009-2 0.4-3 0.1-5s-1-3-1-5c0.001-0.01 0.009-0.02 0.009-0.03 0.06-1 0.3-3 0.8-4 0.3-0.7 0.5-2 0.6-2 0.1-1-0.7-2-2-1-0.1-0.6-0.3-1-0.7-2-0.2-0.2-0.5-0.2-0.7-0.09 0.06-0.04-2-0.6-2-0.6-0.2 0.01-1-0.8-2-0.9-0.6-0.2-1 0.1-2-0.4-0.5-0.4-2-0.03-2-0.03-0.6 0.002-0.7 0.5-1 0.03-0.7-0.4-1-0.4-2-0.9-0.08-0.06-0.2-0.09-0.2-0.1-0.01-0.004-0.02-0.02-0.04-0.02-3-1-6-5-1e1 -4-0.2-0.5-0.3-0.9-0.4-1-0.1-0.6-1-0.5-1 0.004l-0.3 0.9c-1-0.8-2-1-4-2-2-0.6-5 0.1-7-2-0.2-0.2-0.6-0.2-0.8 0-0.8 0.9-3-0.5-4-0.4-2 0.1-4 2-6 0.8-0.3-0.1-0.6-0.08-0.8 0.2-0.7 1-2 0.2-3 1-0.9 1-1 0.9-3 0.7-0.3-0.03-0.6 0.3-0.6 0.6 0.1 0.4 0.08 0.7-0.2 0.9-0.3 0.03-0.6 0.2-0.6 0.6 0 0.7-1 1-1 2-0.5 0.8-0.5 0.9-2 0.8-1-0.07-2-0.3-3-0.2-0.3 0.03-0.6 0.2-0.6 0.6-0.1 1-0.9 2-2 3-0.2 0.2-0.3 0.8-0.2 1 0.3 0.9-0.3 0.8-1 1-0.4 0.1-0.5 0.5-0.3 0.9 0.4 0.9-0.2 2-0.4 3-0.4 2-1 3-3 4l-4 5c-0.4 0.6 0.4 1 0.9 0.7 3-3 2 1 2 3-0.02 0.4 0.4 0.7 0.7 0.6 0.5-0.1 0.7-0.2 1-0.3 0.2 2-0.8 4 0.2 6 0.2 0.4 0.7 0.3 0.9 0.1 0.8-0.7 1-1 2-0.5 0.09 0.09 0.2 0.2 0.4 0.3 2 2 4 5 7 5 1 0.001 2 0.4 3 0.5 2 0.05 4-0.4 5-1 0.9-0.3 2-0.5 3-0.7 2-0.4 3 0.2 4 0.6 2 0.4 3-0.6 5-0.2 1 0.3 3-0.2 4-0.2 1-0.03 2-0.9 3-0.3 0.3 0.1 0.6 0.08 0.8-0.2 0.2-0.4 3 0.2 4-0.3 0.8-0.5 2-0.3 2-0.7 1-0.5 2-0.9 3-1 6-1 1e1 -0.1 2e1 3 0.02 0.01 0.05 0.01 0.07 0.02 0.02 0.02 0.04 0.03 0.06 0.04 0.6 0.3 2 0.6 2-0.3l-1e1 -2e1zm-2e1 0c-0.1 0.03-0.2 0.1-0.3 0.2-1 0.5-3 1-4 1-1 0.03-1 1-3 0.8-1-0.2-2-0.8-3 0.07-0.6-0.4-1-0.7-2-0.6s-2 1-3 0.9c-0.4-0.04-1 0.3-1 0.4-2 0.5-1-0.3-2-0.3-2-0.02-4 0.6-7-0.2-3-1-7 2-1e1 2-1 0.1-2-0.9-4-0.7-3 0.5-4-2-6-4l0.3-0.3c0.8-1 3-2 4-2 1-0.6 2-1 4-2 1-0.6 2 0.5 3 0.5 2-0.002 4-3 6-3 0.8 0.1 2-0.3 2-0.5 0.8-0.3 0.6-0.2 1-0.006 1 0.3 2-0.1 3-0.5 1-0.5 3-0.7 4-1s2-0.6 4-1c1-0.8 2-1 4-0.6 0.3 0.08 0.7 0.05 1-0.04 0.5-0.1 0.9-0.8 1-1 1-2 4-2 6-3 0.3-0.1 0.6-0.5 0.3-0.9l0.06 0.06c0.4-0.06 0.5-0.6 0.3-0.9-0.2-0.4-0.4-0.7-0.6-0.9 0.2 0 0.4-0.03 0.7-0.1 0.2-0.05 0.4-0.2 0.4-0.4 0.1-0.8-0.6-2 0.6-2 0.7-0.1 1-1 1-2 0.002-2 3-3 5-3 0.3 0.1 0.7-0.1 0.7-0.4 0.3-0.4 0.7-0.7 1-1 0.4-0.008 0.7-0.4 0.6-0.7 0.3-0.5 0.7-0.7 1-0.6 0.1 0 0.2-0.04 0.3-0.09 0.006 0.006 0.008 0.006 0.01 0.006 1 0.7 5 1 6 2 0.04 0.3 0.2 0.4 0.4 0.5 0.02 0.2 0.1 0.3 0.3 0.4-0.6 0.8-0.8 2-1 3-0.1 0.6 0.5 0.9 0.9 0.7-0.2 0.9-0.3 2-0.4 3-0.003 0.05 0.02 0.1 0.02 0.1-0.002 0.05-0.01 0.09-0.002 0.1 0.3 1 0.9 3 1 4 0.5 2-0.05 4-0.04 5 0 0.04 0.02 0.07 0.02 0.1-0.005 0.03-0.02 0.06-0.02 0.1-0.03 2-0.2 4 0.01 5s0.6 3 0.9 4c1e1 0 0 0 0 0z" fill="#1F1E21"/>
	<path d="m7e1 4e1c-0.5-1-0.9-3-0.3-4 0.5-1 2-1 3-0.5 0.7 0.6 0.9 2 0.9 3z" fill="#1F1E21"/>
	<path d="m8e1 5e1c-0.8 0.002-0.8 1 0.002 1z" fill="#1F1E21"/>
	<path d="m8e1 5e1c-1 2-5 2-6 0.4-0.6-0.5-1 0.3-0.8 0.8 2 2 7 2 8-0.7z" fill="#1F1E21"/>
	<path d="m4e1 7e1c-3 1-7-0.8-8-4-0.4-1-0.1-3 0.3-4 0.5-2 2-2 3-3 0.07-0.04 0.1-0.09 0.2-0.1 1e1 -1e1 1e1 0 1e1 0z" fill="#010101"/>
	<path d="m7e1 7e1c-3 1-7-0.8-8-4-0.4-1-0.1-3 0.3-4 0.5-2 2-2 3-3 0.07-0.04 0.1-0.09 0.2-0.1 1e1 -1e1 1e1 0 1e1 0z" fill="#010101"/>
	<path d="m7e1 6e1c-0.001-0.006-0.001-0.009-0.003-0.02-0.7-1-2-2-2-4-0.01-0.8-1-0.8-1 0.001 0.02 0.9 0.4 2 0.9 2 0.5 0.8 1 1 2 2 0.3 0.5 0.9 0.3 1-0.2 1e1 0 0 0 0 0z" fill="#1F1E21"/>
	<g fill="#fff">
		<path d="m7e1 3e1c-0.3-0.5-0.8-1-1-1-0.4-0.6-1-0.04-1 0.6 0.3 0.5 0.8 1 1 1v0z"/>
		<path d="m7e1 4e1l-0.9-0.6c-0.5-0.5-1 0.3-0.8 0.8 0.3 0.3 0.7 0.6 1 0.8z"/>
		<path d="m6e1 4e1c-0.6-0.08-1-0.2-2-0.3-0.8-0.08-0.7 1 0.002 1 0.6 0.08 1 0.2 2 0.3z"/>
		<path d="m6e1 4e1c-1 0.01-2 0.2-3 0.4-0.7 0.1-0.4 1 0.3 1 1-0.2 2-0.3 3-0.3z"/>
		<path d="m6e1 5e1c-2 0.4-3 0.9-5 1-0.8 0.04-0.8 1 0.002 1 2-0.1 3-0.6 5-1z"/>
		<path d="m4e1 5e1c-0.5 0.6-1 0.9-2 1-0.7 0.3-0.08 1 0.6 1 0.7-0.4 1-0.8 2-1z"/>
		<path d="m3e1 5e1c-0.5 0.5-1 0.8-2 1-0.6 0.4-0.04 1 0.6 1 0.7-0.4 1-0.8 2-1z"/>
		<path d="m2e1 6e1l-0.5 0.5c-0.5 0.6 0.3 1 0.8 0.8 0.2-0.2 0.3-0.4 0.5-0.5z"/>
		<path d="m2e1 5e1c-1 0.5-2 0.7-3 1-0.6 0.5 0.2 1 0.8 0.8 0.8-0.6 2-0.8 3-1z"/>
		<path d="m2e1 5e1c-1 0.8-2 2-3 2-0.7 0.3-0.4 1 0.3 1l4-2z"/>
		<path d="m3e1 4e1c-1 0.08-2 0.3-3 0.6-0.7 0.2-0.4 1 0.3 1 0.9-0.3 2-0.5 3-0.6z"/>
		<path d="m3e1 3e1c-1-0.07-2-0.2-3-0.1-0.8 0.07-0.8 1 0 1 1-0.1 2 0.05 3 0.1z"/>
		<path d="m4e1 3e1c-0.7-0.2-1-0.7-2-1-0.7-0.3-1 0.7-0.6 1 0.7 0.4 1 0.9 2 1z"/>
		<path d="m5e1 3e1c-0.4-0.8-1-1-2-2-0.7-0.4-1 0.6-0.6 1 0.6 0.4 1 0.8 2 1z"/>
		<path d="m5e1 3e1c-0.4-0.6-1-0.04-1 0.6 0.3 0.4 0.4 0.8 0.4 1-0.05 0.8 1 0.8 1-0.001z"/>
		<path d="m6e1 3e1c-0.1-0.2-0.3-0.4-0.6-0.4l-0.08 0.004c-0.5 0.02-0.7 0.5-0.5 0.9-0.09 0.7 1 1 1 0.3z"/>
		<path d="m6e1 3e1c-2-0.6-4-2-5-2-0.7-0.2-1 1-0.3 1 2 0.4 4 1 5 2v0z"/>
		<path d="m5e1 4e1c-3-0.2-6-0.3-9-0.3-0.8 0-0.8 1 0.002 1 3 0 6 0.08 9 0.3z"/>
		<path d="m4e1 4e1c-1 0.3-2 0.3-3 0.5l-4 0.8c-0.7 0.1-0.7 1 0.002 1l3-0.7c2-0.3 3-0.3 5-0.7z"/>
		<path d="m3e1 4e1c-2 1-5 2-7 3-0.7 0.4-0.06 1 0.6 1 2-1 5-2 7-3z"/>
		<path d="m3e1 4e1c-0.8 0.4-2 0.8-2 1-0.7 0.4-1 1-2 2-0.7 0.4-0.08 1 0.6 1 0.6-0.3 1-0.9 2-1 0.7-0.7 2-1 3-1v0z"/>
		<path d="m4e1 5e1c-2 0.3-4 1-6 2-0.7 0.3-0.09 1 0.6 1 2-0.8 3-2 5-2z"/>
		<path d="m5e1 5e1c-2 0.3-4 0.5-6 1-0.7 0.3-0.4 1 0.3 1 2-0.7 4-0.9 6-1z"/>
		<path d="m5e1 4e1c-3-0.1-5-0.2-8 0.5-0.7 0.2-0.4 1 0.3 1 2-0.6 5-0.6 7-0.5z"/>
		<path d="m5e1 4e1c-2 0-4-0.02-6 0.3-0.7 0.1-0.4 1 0.3 1 2-0.3 4-0.3 6-0.3z"/>
		<path d="m6e1 4e1c-0.7-0.04-1-0.4-2-0.4-0.8-0.04-0.8 1 0.001 1 0.7 0.03 1 0.4 2 0.4z"/>
		<path d="m7e1 3e1c-2-0.4-4-0.6-6-0.5-0.8 0.02-0.8 1 0.003 1 2-0.06 4 0.1 6 0.5z"/>
		<path d="m6e1 4e1c-3 0.6-5 0.8-8 1-0.7 0.2-0.4 1 0.3 1 2-0.6 5-0.9 8-1z"/>
		<path d="m5e1 4e1c-1 0.1-2 0.4-4 0.6-1 0.3-2 0.3-4 0.8-0.7 0.3-0.09 1 0.6 1 0.8-0.4 2-0.4 3-0.5 1-0.3 3-0.6 4-0.7v0z"/>
		<path d="m4e1 4e1c-1 0.2-2 0.3-3 0.4-0.7 0.09-0.8 1 0.002 1l3-0.4z"/>
		<path d="m5e1 4e1c-0.3-0.07-0.6-0.09-0.9-0.09-0.2 0-0.3 0.06-0.4 0.1-0.6-0.009-1-0.1-2-0.1-0.8-0.06-0.7 1 0.001 1 1 0.08 2 0.2 3 0.04z"/>
		<path d="m6e1 3e1c-0.7-0.6-1-0.9-2-1-0.7-0.4-1 0.6-0.6 1 0.7 0.4 1 0.6 2 1z"/>
		<path d="m5e1 3e1c-1-0.3-2-0.9-3-1-0.7-0.1-1 1-0.3 1 1 0.2 2 0.8 3 1z"/>
		<path d="m3e1 4e1c-2-0.2-4-0.01-6 0.009-0.8 0.01-0.8 1 0.001 1 2-0.02 4-0.3 6-0.009z"/>
		<path d="m3e1 4e1c-1-0.02-2 0.8-3 1-0.7 0.4-0.06 1 0.6 1 0.8-0.5 2-1 3-1z"/>
		<path d="m3e1 5e1c-1 0.8-3 2-4 2-0.6 0.4-0.04 1 0.6 1 1-0.8 3-2 4-2z"/>
	</g>
</svg>
