<svg xmlns="http://www.w3.org/2000/svg" width="100" height="100">
    <path fill="#1F1E21" d="M85.829 63.291c-.305-1.475-.752-2.915-.926-4.412-.175-1.538.038-3.121.059-4.659l-.019-.104.019-.098c-.009-1.646.41-3.386.107-5.02-.303-1.61-1.104-3.056-1.413-4.664l.009-.031c.06-1.448.256-2.741.761-4.093.27-.73.501-1.512.58-2.288.143-1.354-.655-1.687-1.547-1.22-.116-.584-.311-1.001-.725-1.525-.155-.191-.517-.225-.715-.088.056-.04-1.647-.629-1.899-.616-.25.012-1.255-.817-1.633-.925-.609-.164-1.061.099-1.563-.385-.459-.441-1.74-.034-2.306-.034-.637.002-.739.452-1.474.033-.651-.378-1.389-.424-2.01-.889-.082-.062-.161-.091-.239-.106l-.038-.02c-3.079-1.076-6.082-4.672-9.551-3.604-.191-.466-.347-.943-.441-1.438-.144-.597-.959-.521-1.133.004-.098.295-.181.592-.254.886-1.2-.787-2.481-1.263-3.923-1.649-2.286-.598-5.427.119-7.264-1.567-.226-.211-.611-.245-.831 0-.839.929-2.745-.504-3.703-.436-1.858.129-3.692 1.661-5.573.832-.301-.135-.621-.085-.807.217-.707 1.128-2.171.237-2.899 1.487-.869 1.486-1.42.891-3 .726-.308-.032-.607.294-.588.587.146.366.075.666-.221.898-.316.034-.587.242-.586.587 0 .722-1.16 1.407-1.469 1.938-.465.794-.453.858-1.542.786-.956-.067-1.725-.285-2.676-.195-.341.03-.554.244-.585.589-.104 1.179-.892 2.128-1.615 2.842-.241.239-.347.781-.247 1.096.292.937-.326.81-1.14 1.104-.377.135-.525.506-.349.863.429.882-.241 2.295-.429 3.173-.399 1.873-1.247 3.096-2.545 4.483-1.558 1.666-3.24 3.087-4.43 5.06-.365.602.435 1.129.924.712 3.016-2.568 2.268 1.138 2.175 2.687-.023.387.393.66.745.564.519-.144.746-.208 1.006-.317.221 2.125-.85 4.164.163 6.256.176.364.657.343.924.115.784-.67 1.258-1.199 1.987-.47.092.089.226.197.372.279 2.053 2.01 3.535 4.814 6.708 4.819 1.142.001 2.024.443 3.184.471 1.895.048 3.619-.408 5.424-.956.861-.261 1.717-.521 2.589-.748 1.681-.435 2.764.244 4.292.574 1.776.385 3.422-.599 5.255-.16 1.412.334 2.859-.204 4.315-.241 1.101-.03 1.798-.925 3.089-.287.274.131.649.082.803-.216.209-.398 3.049.217 3.867-.305.849-.54 1.677-.275 2.491-.713 1.018-.541 2.105-.874 3.126-1.402 6.331-1.317 12.697-.104 18.344 2.974l.071.024.063.042c.575.254 1.79.622 2.029-.299.201-.781-.544-1.265-1.173-1.528zm-19.823-2.319c-.144.034-.238.107-.307.197-1.083.547-2.997 1.382-4.049 1.424-.997.034-1.438 1.001-2.552.767-1.17-.242-2.059-.766-2.78.068-.637-.392-1.039-.734-1.954-.617-1.039.134-1.519 1.075-2.803.947-.416-.042-1.067.269-1.447.391-1.56.509-.993-.313-1.738-.315-2.35-.02-4.381.585-6.72-.223-2.856-.981-6.693 1.522-9.571 1.768-1.489.127-2.258-.886-3.613-.663-2.72.456-4.237-2.073-5.875-3.874.09-.094.184-.204.284-.347.808-1.156 2.604-1.565 3.817-2.213 1.155-.619 2.365-1.039 3.559-1.551 1.486-.637 1.681.529 2.894.528 2.264-.002 3.599-3.298 5.845-2.864.754.144 1.799-.288 2.47-.542.767-.295.614-.195 1.309-.006.974.269 1.954-.121 2.846-.451 1.425-.528 2.737-.722 4.213-1.043 1.228-.274 2.461-.618 3.612-1.135 1.135-.761 2.372-.96 3.711-.6.329.084.718.051 1.045-.037.502-.138.882-.826 1.153-1.204 1.226-1.702 4.036-1.946 5.858-2.655.316-.124.603-.535.349-.865l.055.056c.414-.063.487-.56.349-.87-.161-.365-.366-.665-.59-.948.194 0 .405-.026.656-.103.178-.054.381-.215.411-.414.118-.844-.613-1.587.585-1.839.7-.144 1-1.075 1.003-1.666.002-1.768 3.129-3.152 4.888-2.546.278.095.673-.108.722-.415l.983-1.121c.371-.008.687-.37.564-.745.309-.507.728-.711 1.256-.606.121 0 .214-.036.298-.088l.013.006c1.224.719 5.402 1.066 5.584 2.454.036.257.2.415.396.497.02.165.131.301.272.407-.583.85-.832 1.833-1.033 2.853-.114.574.532.888.904.661-.213.926-.347 1.853-.391 2.874l.024.146-.002.144c.265 1.431.915 2.726 1.314 4.121.473 1.658-.047 3.606-.037 5.303l.022.104-.022.098c-.027 1.77-.191 3.517.014 5.285.163 1.414.624 2.786.91 4.177-5.805-2.977-12.268-4.092-18.704-2.71zM71.428 43.946c-.466-1.329-.945-2.907-.324-4.139.486-.968 1.836-1.179 2.585-.483.669.626.858 1.684.885 2.571-1.299.376-2.258 1.1-3.146 2.051zM76.064 49.933c-.758.002-.757 1.182.002 1.176.762.001.758-1.176-.002-1.176zM80.021 52.826c-1.197 1.866-4.779 1.817-6.322.434-.562-.505-1.395.328-.83.836 2.127 1.905 6.54 1.865 8.171-.677.41-.641-.61-1.229-1.019-.593z"/>
    <path fill="#010101" d="M37.222 70.378c-2.818 1.165-6.677-.786-7.609-3.518-.433-1.274-.106-2.938.257-4.171.494-1.674 1.951-2.063 3.292-2.837l.161-.142c6.31-2.64 10.281 8.037 3.899 10.668zM67.148 70.327c-2.819 1.16-6.677-.786-7.609-3.52-.436-1.275-.108-2.937.255-4.171.492-1.673 1.95-2.059 3.293-2.836l.16-.142c6.306-2.643 10.281 8.036 3.901 10.669z"/>
    <path fill="#1F1E21" d="M73.895 60.749l-.003-.016c-.704-1.374-2.438-2.23-2.472-3.923-.014-.757-1.189-.757-1.175.001.017.88.39 1.664.882 2.378.529.766 1.318 1.3 1.751 2.142.265.52.922.286 1.055-.157 1.808 1.242.604.139-.038-.425z"/>
    <g fill="#fff">
        <path d="M69.289 34.966l-1.154-1.489c-.42-.631-1.438-.036-1.015.597l1.153 1.486c.419.63 1.44.041 1.016-.594zM65.695 37.267c-.335-.179-.622-.387-.898-.65-.546-.526-1.379.306-.83.833.341.331.715.61 1.135.835.671.357 1.263-.662.593-1.018zM63.303 39.492c-.634-.079-1.262-.197-1.897-.269-.753-.082-.742 1.097.002 1.175l1.899.273c.75.09.739-1.088-.004-1.179zM60.668 42.952c-1.127.011-2.235.162-3.339.365-.747.137-.428 1.27.315 1.133 1.002-.187 2.004-.312 3.025-.323.759-.008.758-1.181-.001-1.175zM55.097 45.963c-1.591.396-3.136.909-4.784 1.001-.755.045-.756 1.221.002 1.178 1.758-.099 3.404-.625 5.097-1.043.738-.188.422-1.322-.315-1.136zM37.101 50.683c-.48.58-1.113.934-1.775 1.268-.676.341-.08 1.355.596 1.013.745-.378 1.475-.798 2.012-1.449.483-.58-.348-1.415-.833-.832zM30.127 51.914c-.525.495-1.175.808-1.775 1.198-.633.412-.042 1.429.597 1.015.684-.448 1.411-.814 2.011-1.381.556-.521-.282-1.353-.833-.832zM22.277 55.722c-.201.16-.362.352-.538.541-.52.556.313 1.387.833.833.175-.191.337-.383.54-.544.591-.473-.249-1.301-.835-.83zM22.657 50.142c-1.006.486-2.067.749-2.96 1.455-.595.466.245 1.292.832.828.789-.62 1.833-.837 2.724-1.268.685-.329.084-1.344-.596-1.015zM21.567 46.489c-1.02.778-2.045 1.547-3.242 2.044-.689.287-.386 1.425.315 1.136 1.302-.544 2.408-1.314 3.524-2.166.592-.457.007-1.478-.597-1.014zM26.659 38.269c-1.052.084-2.072.29-3.068.638-.71.248-.404 1.383.316 1.134.898-.314 1.806-.522 2.754-.594.752-.058.757-1.238-.002-1.178zM34.1 33.041c-1.132-.072-2.252-.237-3.386-.128-.75.072-.754 1.25 0 1.177 1.138-.108 2.257.054 3.388.129.758.051.751-1.127-.002-1.178zM39.806 30.138c-.681-.228-1.261-.688-1.894-1.02-.671-.347-1.266.667-.593 1.02.73.381 1.39.874 2.173 1.14.724.241 1.028-.894.314-1.14zM45.711 29.793c-.427-.845-1.183-1.421-1.975-1.903-.651-.395-1.239.625-.593 1.018.63.385 1.213.807 1.552 1.481.342.677 1.355.078 1.016-.596zM50.789 27.819c-.421-.626-1.44-.039-1.018.594.277.419.43.823.396 1.329-.052.756 1.126.75 1.179-.001.045-.697-.178-1.35-.557-1.922zM59.326 30.245c-.099-.237-.284-.448-.568-.432l-.079.004c-.504.022-.663.542-.496.884-.09.706.993.993 1.133.265.048-.239.108-.488.01-.721zM56.136 34.381c-1.845-.643-3.564-1.618-5.491-2.023-.74-.156-1.052.978-.31 1.133 1.921.403 3.646 1.385 5.489 2.026.72.247 1.025-.89.312-1.136zM45.82 35.122c-3.088-.246-6.18-.326-9.28-.326-.758 0-.756 1.181.002 1.181 3.099 0 6.191.075 9.28.322.758.061.75-1.118-.002-1.177zM38.419 37.388c-1.15.295-2.314.323-3.478.518-1.371.233-2.705.642-4.081.828-.742.1-.748 1.283.002 1.179 1.116-.152 2.195-.426 3.292-.672 1.518-.343 3.075-.329 4.581-.716.735-.189.422-1.326-.316-1.137zM33.071 40.846c-2.42 1.126-4.928 2.045-7.242 3.397-.653.382-.059 1.397.597 1.015 2.312-1.349 4.82-2.271 7.242-3.398.687-.317.087-1.332-.597-1.014zM31.386 44.778c-.798.394-1.61.752-2.37 1.221-.705.434-1.151 1.168-1.891 1.56-.673.354-.077 1.372.595 1.018.637-.336 1.109-.856 1.626-1.339.712-.668 1.773-1.022 2.635-1.448.681-.335.081-1.348-.595-1.012zM37.848 45.566c-2.127.287-3.974 1.279-5.916 2.123-.694.304-.091 1.313.596 1.013 1.733-.751 3.425-1.705 5.321-1.958.74-.1.75-1.28-.001-1.178zM45.753 47.466c-1.942.292-3.909.532-5.756 1.231-.701.265-.396 1.403.316 1.136 1.845-.704 3.813-.94 5.755-1.229.749-.114.427-1.242-.315-1.138zM45.968 41.76c-2.531-.133-5.141-.152-7.605.505-.733.195-.42 1.332.312 1.135 2.365-.629 4.869-.595 7.294-.462.761.042.754-1.142-.001-1.178zM52.328 38.431c-2.05 0-4.085-.018-6.116.299-.749.122-.426 1.254.314 1.134 1.922-.301 3.866-.258 5.805-.258.758 0 .756-1.175-.003-1.175zM57.678 37.609l-2.167-.405c-.76-.036-.755 1.144.001 1.178l2.169.404c.759.034.752-1.144-.003-1.177zM65.005 33.617c-1.942-.421-3.926-.609-5.913-.549-.758.02-.757 1.196.003 1.177 1.883-.057 3.758.108 5.599.509.743.161 1.056-.973.311-1.137zM57.867 41.42c-2.51.584-5.088.794-7.583 1.434-.737.19-.422 1.326.312 1.135 2.498-.641 5.076-.852 7.586-1.434.738-.17.424-1.306-.315-1.135zM47.529 44.397c-1.228.125-2.428.365-3.635.625-1.186.254-2.447.272-3.567.754-.694.3-.093 1.312.595 1.018.816-.352 1.928-.365 2.8-.535 1.27-.252 2.52-.553 3.812-.685.746-.075.751-1.252-.005-1.177zM41.406 39.618c-1.021.229-2.058.275-3.095.391-.746.086-.752 1.263.002 1.177 1.142-.125 2.284-.178 3.408-.432.741-.164.424-1.301-.315-1.136zM52.886 35.534c-.299-.071-.595-.086-.901-.086-.167 0-.291.064-.384.149-.618-.009-1.242-.097-1.85-.144-.757-.059-.749 1.119.001 1.178 1.055.081 2.083.237 3.136.039.582-.105.544-1.005-.002-1.136zM56.727 31.21c-.672-.562-1.466-.871-2.219-1.305-.66-.382-1.25.638-.592 1.018.656.375 1.396.635 1.982 1.122.578.482 1.414-.344.829-.835zM46.583 32.839c-1.135-.293-2.148-.915-3.321-1.078-.742-.102-1.058 1.033-.31 1.136 1.172.162 2.187.786 3.321 1.076.733.19 1.044-.945.31-1.134zM32.887 35.957c-1.871-.242-3.747-.013-5.621.009-.759.01-.759 1.188.001 1.177 1.877-.021 3.75-.252 5.622-.009.752.097.741-1.081-.002-1.177zM26.123 41.252c-1.285-.018-2.167.818-3.206 1.442-.651.388-.06 1.403.593 1.011.826-.49 1.596-1.292 2.615-1.278.758.013.756-1.164-.002-1.175zM27.67 50.335c-1.32.773-2.631 1.562-3.927 2.381-.639.405-.045 1.42.598 1.011 1.294-.815 2.603-1.603 3.925-2.373.654-.383.06-1.403-.596-1.019z"/>
    </g>
</svg>
