<?xml version="1.0" encoding="utf-8"?>
<!-- Generator: Adobe Illustrator 17.1.0, SVG Export Plug-In . SVG Version: 6.00 Build 0)  -->
<!DOCTYPE svg PUBLIC "-//W3C//DTD SVG 1.1//EN" "http://www.w3.org/Graphics/SVG/1.1/DTD/svg11.dtd">
<svg version="1.1" id="Layer_1" xmlns="http://www.w3.org/2000/svg" xmlns:xlink="http://www.w3.org/1999/xlink" x="0px" y="0px"
	 viewBox="0 0 400 44.991" enable-background="new 0 0 400 44.991" xml:space="preserve">
<path fill="none" stroke="#000000" stroke-width="0.5" stroke-linecap="round" stroke-linejoin="round" d="M53.246,35.377
	c-0.145,0.035-0.241,0.105-0.314,0.186c-1.074,0.536-2.992,1.339-4.042,1.374c-1.001,0.035-1.448,0.967-2.558,0.745
	c-1.17-0.233-2.063-0.733-2.787,0.07c-0.627-0.384-1.038-0.71-1.954-0.594c-1.038,0.128-1.52,1.036-2.799,0.908
	c-0.422-0.035-1.074,0.256-1.448,0.384c-1.568,0.489-1.001-0.303-1.737-0.314c-2.353-0.012-4.392,0.571-6.732-0.209
	c-2.859-0.943-6.696,1.468-9.58,1.712c-1.484,0.117-2.256-0.862-3.607-0.64c-2.727,0.431-4.247-2.003-5.875-3.749
	c0.084-0.082,0.181-0.198,0.278-0.326c0.808-1.118,2.606-1.514,3.825-2.143c1.146-0.594,2.365-1.002,3.559-1.502
	c1.484-0.606,1.677,0.512,2.896,0.512c2.268,0,3.596-3.179,5.852-2.76c0.748,0.14,1.798-0.28,2.473-0.524
	c0.76-0.291,0.603-0.198,1.303-0.012c0.977,0.256,1.955-0.117,2.847-0.431c1.424-0.512,2.739-0.699,4.223-1.013
	c1.219-0.268,2.461-0.594,3.607-1.095c1.134-0.734,2.377-0.932,3.716-0.582c0.326,0.081,0.724,0.058,1.05-0.035
	c0.495-0.128,0.881-0.792,1.146-1.165c1.231-1.642,4.042-1.875,5.864-2.562c0.314-0.116,0.603-0.512,0.35-0.838
	c0.024,0.023,0.036,0.035,0.06,0.058c0.41-0.058,0.483-0.536,0.35-0.838c-0.169-0.349-0.374-0.64-0.591-0.92
	c0.193,0,0.398-0.023,0.652-0.093c0.181-0.058,0.386-0.21,0.41-0.396c0.121-0.827-0.615-1.537,0.591-1.782
	c0.7-0.14,0.989-1.036,1.001-1.607c0-1.712,3.125-3.051,4.886-2.457c0.277,0.081,0.676-0.105,0.724-0.408
	c0.326-0.361,0.652-0.722,0.989-1.083c0.362,0,0.676-0.349,0.555-0.722c0.314-0.489,0.736-0.687,1.255-0.582
	c0.121,0,0.217-0.035,0.302-0.082c0.012,0,0.012,0,0.012,0c1.231,0.699,5.405,1.036,5.586,2.375
	c0.036,0.245,0.205,0.396,0.398,0.477c0.024,0.163,0.133,0.291,0.277,0.396c-0.591,0.815-0.833,1.77-1.038,2.748
	c-0.109,0.559,0.531,0.862,0.905,0.64c-0.217,0.897-0.35,1.793-0.386,2.783c-0.012,0.047,0.012,0.093,0.024,0.14
	c0,0.047-0.012,0.082,0,0.14c0.265,1.374,0.905,2.632,1.315,3.971c0.47,1.607-0.048,3.493-0.049,5.124
	c0,0.035,0.024,0.07,0.024,0.105c0,0.035-0.012,0.058-0.024,0.093c-0.024,1.712-0.181,3.4,0.024,5.1
	c0.157,1.374,0.615,2.69,0.905,4.041C66.156,35.12,59.689,34.037,53.246,35.377z"/>
<path fill="#1F1E21" d="M73.081,37.616c-0.305-1.424-0.752-2.815-0.927-4.261c-0.175-1.485,0.039-3.014,0.06-4.5
	c0-0.041-0.013-0.067-0.019-0.1c0.006-0.034,0.019-0.06,0.019-0.095c-0.009-1.589,0.41-3.27,0.108-4.848
	c-0.303-1.555-1.104-2.952-1.414-4.505c0.001-0.011,0.009-0.02,0.009-0.03c0.06-1.398,0.256-2.647,0.762-3.953
	c0.27-0.705,0.501-1.46,0.581-2.21c0.143-1.308-0.655-1.629-1.548-1.178c-0.116-0.564-0.311-0.967-0.725-1.473
	c-0.155-0.185-0.517-0.217-0.715-0.085c0.056-0.038-1.648-0.608-1.901-0.595c-0.25,0.012-1.256-0.789-1.634-0.893
	c-0.61-0.158-1.062,0.095-1.564-0.372c-0.459-0.426-1.741-0.032-2.308-0.032c-0.638,0.002-0.74,0.437-1.475,0.032
	c-0.652-0.365-1.39-0.41-2.011-0.859c-0.083-0.06-0.161-0.088-0.239-0.102c-0.014-0.004-0.021-0.017-0.038-0.019
	c-3.081-1.039-6.086-4.512-9.557-3.48c-0.191-0.45-0.347-0.911-0.441-1.388c-0.144-0.576-0.959-0.503-1.134,0.004
	c-0.098,0.285-0.181,0.572-0.255,0.855c-1.2-0.76-2.482-1.22-3.926-1.592c-2.287-0.578-5.431,0.115-7.268-1.513
	c-0.226-0.204-0.611-0.236-0.831,0c-0.84,0.897-2.746-0.486-3.706-0.42c-1.859,0.125-3.694,1.605-5.576,0.803
	c-0.301-0.131-0.622-0.082-0.807,0.209c-0.708,1.09-2.172,0.229-2.901,1.437c-0.869,1.435-1.421,0.86-3.002,0.702
	c-0.308-0.031-0.608,0.283-0.589,0.567c0.147,0.353,0.075,0.643-0.221,0.867C17.57,4.621,17.299,4.821,17.3,5.155
	c0,0.697-1.161,1.359-1.47,1.872c-0.465,0.767-0.453,0.829-1.543,0.759c-0.956-0.065-1.726-0.275-2.678-0.188
	c-0.341,0.029-0.554,0.235-0.585,0.569c-0.105,1.139-0.893,2.055-1.616,2.745c-0.241,0.231-0.347,0.754-0.247,1.058
	c0.292,0.904-0.326,0.782-1.141,1.066c-0.377,0.131-0.526,0.489-0.349,0.833c0.429,0.852-0.241,2.216-0.429,3.065
	c-0.4,1.809-1.248,2.99-2.547,4.33c-1.559,1.609-3.242,2.982-4.433,4.887c-0.365,0.581,0.435,1.09,0.924,0.687
	c3.018-2.481,2.269,1.099,2.177,2.594c-0.023,0.374,0.393,0.637,0.745,0.545c0.519-0.139,0.746-0.201,1.006-0.306
	c0.221,2.052-0.85,4.022,0.162,6.042c0.176,0.351,0.658,0.332,0.925,0.111c0.785-0.648,1.259-1.158,1.989-0.454
	c0.092,0.086,0.227,0.191,0.373,0.27c2.054,1.941,3.537,4.649,6.713,4.654c1.142,0.001,2.025,0.428,3.186,0.455
	c1.896,0.046,3.621-0.394,5.428-0.923c0.862-0.252,1.719-0.503,2.59-0.723c1.683-0.42,2.765,0.235,4.294,0.554
	c1.777,0.372,3.424-0.578,5.259-0.155c1.413,0.322,2.861-0.197,4.318-0.233c1.101-0.029,1.799-0.893,3.091-0.277
	c0.275,0.127,0.65,0.08,0.803-0.208c0.21-0.385,3.051,0.21,3.869-0.295c0.849-0.522,1.678-0.266,2.492-0.689
	c1.018-0.523,2.107-0.844,3.128-1.354c6.335-1.272,12.705-0.101,18.356,2.871c0.024,0.014,0.046,0.014,0.071,0.024
	c0.023,0.015,0.037,0.03,0.063,0.041c0.576,0.246,1.791,0.6,2.031-0.289C74.455,38.337,73.71,37.87,73.081,37.616z M53.245,35.377
	c-0.144,0.033-0.238,0.103-0.307,0.191c-1.084,0.528-2.999,1.335-4.051,1.375c-0.998,0.033-1.439,0.966-2.554,0.741
	c-1.171-0.234-2.06-0.739-2.781,0.066c-0.637-0.379-1.039-0.709-1.955-0.595c-1.039,0.13-1.52,1.038-2.805,0.915
	c-0.416-0.04-1.068,0.26-1.448,0.378c-1.561,0.492-0.994-0.303-1.739-0.304c-2.351-0.019-4.384,0.565-6.725-0.215
	c-2.858-0.948-6.698,1.471-9.578,1.708c-1.49,0.122-2.259-0.855-3.616-0.641c-2.722,0.441-4.239-2.002-5.878-3.741
	c0.09-0.09,0.184-0.197,0.284-0.335c0.808-1.116,2.606-1.512,3.819-2.137c1.156-0.598,2.366-1.003,3.561-1.498
	c1.487-0.615,1.682,0.511,2.896,0.51c2.266-0.002,3.601-3.186,5.849-2.767c0.755,0.139,1.8-0.278,2.471-0.524
	c0.767-0.284,0.614-0.188,1.31-0.006c0.975,0.26,1.955-0.117,2.848-0.435c1.426-0.51,2.738-0.697,4.216-1.008
	c1.228-0.265,2.463-0.597,3.615-1.096c1.136-0.735,2.373-0.927,3.714-0.58c0.329,0.081,0.719,0.05,1.045-0.035
	c0.502-0.133,0.883-0.798,1.154-1.162c1.227-1.644,4.039-1.879,5.862-2.564c0.316-0.12,0.603-0.516,0.35-0.836
	c0.019,0.016,0.038,0.033,0.055,0.054c0.414-0.061,0.487-0.541,0.349-0.84c-0.161-0.353-0.366-0.642-0.591-0.915
	c0.194,0,0.406-0.025,0.656-0.1c0.178-0.052,0.381-0.208,0.411-0.399c0.118-0.815-0.614-1.533,0.585-1.776
	c0.7-0.139,1.001-1.038,1.003-1.609c0.002-1.708,3.131-3.044,4.892-2.46c0.278,0.092,0.674-0.105,0.722-0.4
	c0.33-0.359,0.656-0.72,0.984-1.083c0.371-0.008,0.687-0.357,0.564-0.72c0.309-0.489,0.729-0.687,1.257-0.586
	c0.121,0,0.214-0.034,0.299-0.085c0.006,0.006,0.008,0.006,0.013,0.006c1.225,0.694,5.406,1.029,5.587,2.37
	c0.036,0.248,0.2,0.401,0.396,0.48c0.02,0.159,0.131,0.291,0.272,0.393c-0.584,0.821-0.833,1.771-1.034,2.755
	c-0.114,0.555,0.533,0.858,0.904,0.638c-0.214,0.894-0.347,1.79-0.391,2.775c-0.003,0.051,0.016,0.092,0.025,0.141
	c-0.002,0.045-0.01,0.089-0.002,0.139c0.265,1.382,0.915,2.633,1.314,3.98c0.473,1.601-0.047,3.483-0.037,5.122
	c0,0.036,0.017,0.067,0.022,0.101c-0.005,0.032-0.02,0.06-0.022,0.094c-0.027,1.709-0.192,3.397,0.013,5.104
	c0.163,1.366,0.624,2.69,0.91,4.034C66.152,35.118,59.685,34.041,53.245,35.377z"/>
<path fill="#1F1E21" d="M58.671,18.933c-0.467-1.284-0.945-2.807-0.324-3.997c0.487-0.935,1.837-1.138,2.587-0.467
	c0.67,0.605,0.859,1.626,0.886,2.483C60.519,17.316,59.56,18.015,58.671,18.933z"/>
<path id="jez_x5F_onama_x5F_oko" fill="#1F1E21" d="M64.514,24.082c-1.606,0.005-1.604,2.415,0.005,2.404
	C66.131,26.485,66.123,24.081,64.514,24.082z"/>
<path fill="#1F1E21" d="M67.269,27.509c-1.198,1.802-4.782,1.755-6.326,0.419c-0.563-0.488-1.396,0.317-0.831,0.808
	c2.129,1.839,6.544,1.801,8.177-0.654C68.699,27.463,67.679,26.895,67.269,27.509z"/>
<g id="jez_x5F_onama_x5F_kotac_x5F_l_x5F_fix">
	<path id="jez_x5F_onama_x5F_kotac_x5F_l" fill="#010101" d="M25.676,44.45c-3.059,1.224-7.246-0.825-8.258-3.694
		c-0.469-1.338-0.115-3.085,0.279-4.38c0.536-1.758,2.117-2.167,3.572-2.979c0.077-0.043,0.13-0.096,0.175-0.149
		C28.294,30.477,32.603,41.687,25.676,44.45z"/>
</g>
<g id="jez_x5F_onama_x5F_kotac_x5F_r_x5F_fix">
	<path id="jez_x5F_onama_x5F_kotac_x5F_r" fill="#010101" d="M53.588,44.454c-3.06,1.218-7.246-0.825-8.258-3.696
		c-0.473-1.339-0.117-3.084,0.277-4.38c0.534-1.757,2.117-2.162,3.574-2.978c0.074-0.043,0.129-0.095,0.174-0.15
		C56.2,30.475,60.513,41.688,53.588,44.454z"/>
</g>
<path fill="#1F1E21" d="M61.138,35.161c-0.001-0.006-0.001-0.008-0.003-0.015c-0.704-1.327-2.439-2.154-2.473-3.789
	c-0.014-0.731-1.19-0.731-1.176,0.001c0.017,0.85,0.39,1.607,0.883,2.296c0.529,0.74,1.319,1.256,1.752,2.068
	c0.265,0.502,0.922,0.276,1.056-0.151C62.986,36.771,61.781,35.706,61.138,35.161z"/>
<g>
	<path fill="#FFFFFF" d="M56.531,10.261c-0.349-0.508-0.805-0.933-1.155-1.438c-0.42-0.61-1.438-0.035-1.016,0.577
		c0.349,0.507,0.808,0.929,1.154,1.435C55.934,11.443,56.955,10.874,56.531,10.261z"/>
	<path fill="#FFFFFF" d="M52.935,12.483c-0.335-0.173-0.623-0.374-0.898-0.628c-0.546-0.508-1.38,0.296-0.83,0.804
		c0.342,0.32,0.716,0.589,1.136,0.806C53.013,13.811,53.605,12.827,52.935,12.483z"/>
	<path fill="#FFFFFF" d="M50.541,14.633c-0.635-0.076-1.263-0.19-1.899-0.26c-0.753-0.079-0.742,1.059,0.002,1.135
		c0.636,0.074,1.266,0.188,1.9,0.264C51.296,15.858,51.285,14.72,50.541,14.633z"/>
	<path fill="#FFFFFF" d="M47.904,17.974c-1.128,0.011-2.236,0.156-3.342,0.353c-0.747,0.133-0.429,1.227,0.316,1.094
		c1.003-0.18,2.005-0.302,3.027-0.312C48.664,19.101,48.664,17.968,47.904,17.974z"/>
	<path fill="#FFFFFF" d="M42.329,20.882c-1.592,0.383-3.138,0.878-4.787,0.968c-0.755,0.044-0.757,1.179,0.002,1.137
		c1.759-0.095,3.406-0.603,5.1-1.008C43.383,21.798,43.067,20.702,42.329,20.882z"/>
	<path fill="#FFFFFF" d="M24.321,25.442c-0.48,0.56-1.114,0.902-1.777,1.224c-0.676,0.329-0.08,1.309,0.597,0.978
		c0.746-0.365,1.476-0.771,2.014-1.399C25.638,25.685,24.806,24.879,24.321,25.442z"/>
	<path fill="#FFFFFF" d="M17.343,26.631c-0.525,0.478-1.176,0.781-1.776,1.157c-0.634,0.398-0.042,1.38,0.598,0.98
		c0.685-0.433,1.412-0.787,2.013-1.334C18.732,26.931,17.894,26.128,17.343,26.631z"/>
	<path fill="#FFFFFF" d="M9.487,30.31c-0.201,0.155-0.362,0.34-0.538,0.522c-0.52,0.537,0.314,1.34,0.833,0.805
		c0.175-0.185,0.337-0.37,0.54-0.526C10.914,30.654,10.074,29.855,9.487,30.31z"/>
	<path fill="#FFFFFF" d="M9.868,24.92c-1.007,0.469-2.068,0.723-2.962,1.405c-0.596,0.45,0.245,1.248,0.832,0.8
		c0.79-0.599,1.834-0.808,2.725-1.225C11.149,25.583,10.549,24.603,9.868,24.92z"/>
	<path fill="#FFFFFF" d="M8.777,21.393c-1.021,0.752-2.046,1.494-3.244,1.974c-0.689,0.277-0.386,1.376,0.316,1.097
		c1.303-0.525,2.41-1.27,3.526-2.092C9.967,21.93,9.382,20.944,8.777,21.393z"/>
	<path fill="#FFFFFF" d="M13.873,13.454c-1.052,0.081-2.073,0.28-3.07,0.616c-0.71,0.24-0.404,1.336,0.317,1.095
		c0.898-0.303,1.807-0.504,2.756-0.574C14.628,14.535,14.632,13.395,13.873,13.454z"/>
	<path fill="#FFFFFF" d="M21.32,8.404c-1.133-0.069-2.253-0.229-3.388-0.124c-0.75,0.069-0.754,1.208,0,1.136
		c1.139-0.105,2.258,0.052,3.39,0.125C22.08,9.59,22.073,8.453,21.32,8.404z"/>
	<path fill="#FFFFFF" d="M27.03,5.6c-0.681-0.22-1.262-0.664-1.895-0.985C24.463,4.28,23.867,5.259,24.541,5.6
		c0.73,0.368,1.391,0.844,2.175,1.101C27.439,6.934,27.743,5.837,27.03,5.6z"/>
	<path fill="#FFFFFF" d="M32.938,5.266c-0.427-0.816-1.184-1.373-1.977-1.838c-0.652-0.381-1.24,0.604-0.594,0.983
		c0.631,0.372,1.214,0.779,1.553,1.431C32.264,6.495,33.278,5.917,32.938,5.266z"/>
	<path fill="#FFFFFF" d="M38.019,3.36C37.598,2.754,36.578,3.322,37,3.933c0.277,0.404,0.43,0.795,0.396,1.284
		c-0.052,0.73,1.127,0.724,1.179-0.001C38.622,4.542,38.399,3.912,38.019,3.36z"/>
	<path fill="#FFFFFF" d="M46.562,5.702c-0.099-0.229-0.284-0.432-0.568-0.417l-0.079,0.004c-0.505,0.021-0.664,0.523-0.496,0.854
		c-0.09,0.681,0.993,0.959,1.133,0.256C46.6,6.168,46.66,5.927,46.562,5.702z"/>
	<path fill="#FFFFFF" d="M43.37,9.696c-1.846-0.62-3.567-1.563-5.495-1.953c-0.74-0.151-1.053,0.944-0.31,1.094
		c1.922,0.389,3.648,1.337,5.493,1.957C43.777,11.033,44.083,9.934,43.37,9.696z"/>
	<path fill="#FFFFFF" d="M33.047,10.413c-3.09-0.238-6.184-0.314-9.286-0.314c-0.759,0-0.756,1.14,0.002,1.14
		c3.101,0,6.195,0.072,9.286,0.31C33.807,11.608,33.799,10.47,33.047,10.413z"/>
	<path fill="#FFFFFF" d="M25.641,12.602c-1.151,0.285-2.315,0.312-3.481,0.501c-1.372,0.225-2.707,0.62-4.084,0.8
		c-0.743,0.097-0.748,1.239,0.002,1.138c1.116-0.147,2.196-0.412,3.295-0.65c1.519-0.332,3.077-0.318,4.584-0.692
		C26.693,13.517,26.379,12.419,25.641,12.602z"/>
	<path fill="#FFFFFF" d="M20.289,15.942c-2.422,1.088-4.932,1.976-7.247,3.281c-0.654,0.369-0.059,1.35,0.597,0.98
		c2.314-1.303,4.824-2.194,7.247-3.283C21.574,16.615,20.974,15.635,20.289,15.942z"/>
	<path fill="#FFFFFF" d="M18.603,19.739c-0.798,0.381-1.611,0.727-2.372,1.18c-0.705,0.419-1.152,1.128-1.892,1.507
		c-0.674,0.342-0.078,1.325,0.595,0.983c0.637-0.325,1.11-0.827,1.628-1.294c0.712-0.645,1.775-0.987,2.637-1.398
		C19.879,20.393,19.279,19.414,18.603,19.739z"/>
	<path fill="#FFFFFF" d="M25.069,20.5c-2.128,0.277-3.977,1.235-5.92,2.05c-0.695,0.293-0.091,1.268,0.597,0.978
		c1.734-0.725,3.428-1.646,5.324-1.891C25.81,21.541,25.82,20.401,25.069,20.5z"/>
	<path fill="#FFFFFF" d="M32.979,22.335c-1.943,0.282-3.912,0.514-5.759,1.189c-0.701,0.256-0.397,1.355,0.317,1.097
		c1.846-0.68,3.816-0.908,5.759-1.187C34.044,23.324,33.722,22.234,32.979,22.335z"/>
	<path fill="#FFFFFF" d="M33.195,16.824c-2.533-0.128-5.144-0.146-7.611,0.489c-0.733,0.188-0.421,1.286,0.313,1.096
		c2.366-0.608,4.872-0.575,7.299-0.447C33.957,18.002,33.95,16.858,33.195,16.824z"/>
	<path fill="#FFFFFF" d="M39.559,13.608c-2.052,0-4.088-0.017-6.12,0.289c-0.75,0.118-0.427,1.211,0.314,1.095
		c1.923-0.291,3.869-0.249,5.809-0.249C40.32,14.743,40.318,13.608,39.559,13.608z"/>
	<path fill="#FFFFFF" d="M44.912,12.814c-0.738-0.035-1.423-0.356-2.168-0.391c-0.76-0.034-0.755,1.105,0.001,1.138
		c0.739,0.032,1.422,0.355,2.17,0.39C45.675,13.984,45.668,12.846,44.912,12.814z"/>
	<path fill="#FFFFFF" d="M52.245,8.959c-1.943-0.406-3.929-0.588-5.917-0.53c-0.759,0.019-0.757,1.155,0.003,1.137
		c1.884-0.055,3.76,0.104,5.603,0.492C52.677,10.211,52.99,9.116,52.245,8.959z"/>
	<path fill="#FFFFFF" d="M45.102,16.494c-2.512,0.564-5.091,0.767-7.588,1.385c-0.737,0.183-0.423,1.281,0.313,1.096
		c2.499-0.619,5.079-0.823,7.591-1.385C46.155,17.427,45.841,16.33,45.102,16.494z"/>
	<path fill="#FFFFFF" d="M34.757,19.37c-1.229,0.121-2.43,0.352-3.637,0.603c-1.187,0.246-2.448,0.263-3.57,0.729
		c-0.695,0.29-0.093,1.267,0.595,0.983c0.816-0.34,1.929-0.352,2.802-0.517c1.271-0.243,2.522-0.534,3.814-0.661
		C35.508,20.435,35.513,19.298,34.757,19.37z"/>
	<path fill="#FFFFFF" d="M28.63,14.756c-1.021,0.221-2.059,0.266-3.097,0.378c-0.746,0.083-0.753,1.22,0.002,1.137
		c1.142-0.121,2.286-0.172,3.41-0.417C29.687,15.693,29.369,14.596,28.63,14.756z"/>
	<path fill="#FFFFFF" d="M40.117,10.811c-0.299-0.068-0.596-0.083-0.901-0.083c-0.167,0-0.291,0.062-0.384,0.144
		c-0.619-0.009-1.243-0.093-1.851-0.139c-0.757-0.057-0.75,1.081,0.001,1.137c1.056,0.078,2.084,0.229,3.138,0.037
		C40.702,11.806,40.664,10.937,40.117,10.811z"/>
	<path fill="#FFFFFF" d="M43.961,6.634c-0.672-0.543-1.467-0.841-2.22-1.26c-0.661-0.369-1.251,0.616-0.593,0.983
		c0.656,0.362,1.396,0.613,1.984,1.084C43.71,7.906,44.546,7.108,43.961,6.634z"/>
	<path fill="#FFFFFF" d="M33.81,8.208c-1.135-0.283-2.15-0.884-3.323-1.041c-0.742-0.098-1.058,0.998-0.31,1.097
		c1.173,0.156,2.188,0.759,3.323,1.039C34.234,9.487,34.545,8.391,33.81,8.208z"/>
	<path fill="#FFFFFF" d="M20.105,11.22c-1.872-0.234-3.75-0.012-5.625,0.009c-0.759,0.01-0.759,1.147,0.001,1.136
		c1.878-0.02,3.752-0.244,5.625-0.009C20.859,12.451,20.849,11.313,20.105,11.22z"/>
	<path fill="#FFFFFF" d="M13.336,16.334c-1.285-0.017-2.169,0.791-3.208,1.393c-0.652,0.375-0.06,1.355,0.594,0.977
		c0.827-0.473,1.597-1.247,2.617-1.234C14.097,17.481,14.095,16.345,13.336,16.334z"/>
	<path fill="#FFFFFF" d="M14.884,25.106c-1.321,0.747-2.633,1.508-3.929,2.3c-0.64,0.391-0.045,1.372,0.598,0.976
		c1.295-0.788,2.604-1.548,3.928-2.292C16.135,25.721,15.54,24.736,14.884,25.106z"/>
</g>
</svg>
