<?xml version="1.0" encoding="utf-8"?>
<!-- Generator: Adobe Illustrator 17.1.0, SVG Export Plug-In . SVG Version: 6.00 Build 0)  -->
<!DOCTYPE svg PUBLIC "-//W3C//DTD SVG 1.1//EN" "http://www.w3.org/Graphics/SVG/1.1/DTD/svg11.dtd">
<svg version="1.1" id="Layer_1" xmlns="http://www.w3.org/2000/svg" xmlns:xlink="http://www.w3.org/1999/xlink" x="0px" y="0px"
	 viewBox="0 0 400 48" enable-background="new 0 0 400 48" xml:space="preserve">
<path fill="none" stroke="#000000" stroke-width="0.5" stroke-linecap="round" stroke-linejoin="round" d="M53.293,36.767
	c-0.145,0.036-0.242,0.109-0.315,0.194c-1.078,0.557-3.004,1.393-4.058,1.429c-1.005,0.036-1.454,1.005-2.568,0.775
	c-1.175-0.242-2.071-0.763-2.798,0.073c-0.63-0.4-1.042-0.739-1.962-0.618c-1.042,0.133-1.526,1.078-2.81,0.945
	c-0.424-0.036-1.078,0.267-1.454,0.4c-1.575,0.509-1.005-0.315-1.744-0.327c-2.362-0.012-4.409,0.594-6.76-0.218
	c-2.871-0.981-6.723,1.526-9.618,1.781c-1.49,0.121-2.265-0.896-3.622-0.666c-2.738,0.448-4.264-2.084-5.899-3.901
	c0.085-0.085,0.182-0.206,0.279-0.339c0.812-1.163,2.617-1.575,3.84-2.229c1.151-0.618,2.374-1.042,3.574-1.563
	c1.49-0.63,1.684,0.533,2.907,0.533c2.277,0,3.61-3.307,5.875-2.871c0.751,0.145,1.805-0.291,2.483-0.545
	c0.763-0.303,0.606-0.206,1.308-0.012c0.981,0.267,1.962-0.121,2.859-0.448c1.429-0.533,2.75-0.727,4.24-1.054
	c1.223-0.279,2.471-0.618,3.622-1.139c1.139-0.763,2.386-0.969,3.731-0.606c0.327,0.085,0.727,0.061,1.054-0.036
	c0.497-0.133,0.884-0.824,1.151-1.211c1.236-1.708,4.058-1.95,5.887-2.665c0.315-0.121,0.606-0.533,0.351-0.872
	c0.024,0.024,0.036,0.036,0.061,0.061c0.412-0.061,0.485-0.557,0.351-0.872c-0.17-0.363-0.376-0.666-0.594-0.957
	c0.194,0,0.4-0.024,0.654-0.097c0.182-0.061,0.388-0.218,0.412-0.412c0.121-0.86-0.618-1.599,0.594-1.853
	c0.703-0.145,0.993-1.078,1.005-1.672c0-1.781,3.137-3.174,4.906-2.556c0.279,0.085,0.678-0.109,0.727-0.424
	c0.327-0.376,0.654-0.751,0.993-1.127c0.363,0,0.678-0.363,0.557-0.751c0.315-0.509,0.739-0.715,1.26-0.606
	c0.121,0,0.218-0.036,0.303-0.085c0.012,0,0.012,0,0.012,0c1.236,0.727,5.427,1.078,5.609,2.471c0.036,0.254,0.206,0.412,0.4,0.497
	c0.024,0.17,0.133,0.303,0.279,0.412c-0.594,0.848-0.836,1.841-1.042,2.859c-0.109,0.581,0.533,0.896,0.909,0.666
	c-0.218,0.933-0.351,1.866-0.388,2.895c-0.012,0.048,0.012,0.097,0.024,0.145c0,0.048-0.012,0.085,0,0.145
	c0.267,1.429,0.909,2.738,1.32,4.131c0.472,1.672-0.048,3.634-0.048,5.33c0,0.036,0.024,0.073,0.024,0.109
	c0,0.036-0.012,0.061-0.024,0.097c-0.024,1.781-0.182,3.537,0.024,5.306c0.157,1.429,0.618,2.798,0.909,4.203
	C66.255,36.501,59.762,35.374,53.293,36.767z"/>
<path fill="#1F1E21" d="M73.208,39.098c-0.306-1.482-0.755-2.929-0.931-4.433c-0.175-1.545,0.038-3.136,0.06-4.681
	c0-0.042-0.013-0.069-0.019-0.104c0.006-0.036,0.019-0.062,0.019-0.099c-0.009-1.653,0.412-3.402,0.108-5.044
	c-0.305-1.617-1.109-3.071-1.42-4.686c0.001-0.011,0.009-0.021,0.009-0.031c0.06-1.455,0.257-2.754,0.764-4.113
	c0.271-0.734,0.503-1.519,0.583-2.299c0.143-1.36-0.658-1.694-1.554-1.226c-0.116-0.587-0.312-1.006-0.728-1.533
	c-0.156-0.192-0.519-0.226-0.718-0.089c0.056-0.04-1.655-0.632-1.908-0.619c-0.251,0.012-1.261-0.821-1.64-0.929
	c-0.612-0.164-1.066,0.099-1.57-0.387c-0.461-0.443-1.748-0.034-2.317-0.034c-0.64,0.002-0.742,0.454-1.481,0.033
	c-0.654-0.38-1.396-0.426-2.02-0.893c-0.083-0.062-0.161-0.092-0.24-0.106c-0.014-0.004-0.021-0.018-0.038-0.02
	c-3.094-1.081-6.111-4.694-9.596-3.621c-0.192-0.468-0.348-0.947-0.443-1.444c-0.144-0.599-0.963-0.524-1.139,0.004
	c-0.099,0.297-0.181,0.595-0.256,0.89c-1.205-0.791-2.493-1.269-3.942-1.657c-2.296-0.601-5.453,0.12-7.298-1.575
	c-0.227-0.212-0.614-0.246-0.834,0c-0.843,0.934-2.758-0.506-3.721-0.438c-1.867,0.13-3.709,1.669-5.599,0.836
	c-0.303-0.136-0.624-0.085-0.811,0.218c-0.71,1.134-2.181,0.238-2.912,1.494c-0.873,1.493-1.427,0.895-3.014,0.73
	c-0.309-0.032-0.61,0.295-0.591,0.59c0.147,0.367,0.075,0.669-0.222,0.902c-0.318,0.034-0.59,0.243-0.589,0.59
	c0,0.725-1.165,1.413-1.476,1.947c-0.467,0.798-0.455,0.862-1.549,0.789c-0.96-0.067-1.733-0.287-2.688-0.196
	c-0.342,0.03-0.556,0.245-0.588,0.592c-0.105,1.185-0.897,2.138-1.622,2.856c-0.242,0.24-0.349,0.784-0.248,1.101
	c0.293,0.941-0.328,0.813-1.145,1.109c-0.378,0.136-0.528,0.509-0.35,0.867c0.431,0.886-0.242,2.306-0.431,3.188
	c-0.401,1.881-1.252,3.111-2.557,4.505c-1.565,1.674-3.255,3.102-4.451,5.084C-0.274,27.77,0.53,28.3,1.021,27.881
	C4.051,25.3,3.3,29.024,3.207,30.58c-0.023,0.389,0.395,0.663,0.748,0.567c0.522-0.145,0.749-0.209,1.01-0.318
	c0.222,2.135-0.854,4.184,0.163,6.286c0.177,0.366,0.66,0.345,0.929,0.116c0.788-0.674,1.264-1.205,1.997-0.472
	c0.092,0.089,0.228,0.198,0.374,0.281c2.063,2.019,3.551,4.837,6.74,4.842c1.147,0.001,2.033,0.445,3.199,0.473
	c1.904,0.048,3.636-0.41,5.45-0.96c0.866-0.262,1.726-0.523,2.601-0.752c1.689-0.437,2.777,0.245,4.312,0.577
	c1.784,0.387,3.438-0.601,5.28-0.16c1.419,0.336,2.873-0.205,4.335-0.242c1.106-0.03,1.806-0.929,3.103-0.288
	c0.276,0.132,0.652,0.083,0.806-0.217c0.21-0.4,3.064,0.218,3.885-0.306c0.853-0.543,1.685-0.276,2.502-0.716
	c1.022-0.544,2.115-0.878,3.14-1.409c6.361-1.323,12.757-0.104,18.43,2.988c0.024,0.014,0.046,0.014,0.071,0.025
	c0.024,0.015,0.037,0.031,0.063,0.042c0.578,0.256,1.798,0.625,2.039-0.301C74.589,39.848,73.84,39.362,73.208,39.098z
	 M53.292,36.768c-0.145,0.034-0.239,0.108-0.309,0.198c-1.088,0.549-3.011,1.389-4.068,1.431c-1.002,0.034-1.445,1.005-2.565,0.771
	c-1.176-0.243-2.069-0.769-2.793,0.068c-0.64-0.394-1.044-0.737-1.963-0.62c-1.043,0.135-1.526,1.08-2.817,0.952
	c-0.418-0.042-1.072,0.27-1.454,0.393c-1.567,0.512-0.998-0.315-1.746-0.316c-2.361-0.02-4.402,0.588-6.752-0.224
	c-2.869-0.986-6.725,1.53-9.616,1.776c-1.496,0.127-2.268-0.89-3.63-0.667c-2.733,0.458-4.257-2.083-5.902-3.892
	c0.091-0.094,0.184-0.205,0.285-0.349c0.812-1.161,2.616-1.573,3.835-2.223c1.161-0.622,2.376-1.043,3.576-1.559
	c1.493-0.64,1.689,0.531,2.908,0.531c2.275-0.002,3.616-3.314,5.873-2.878c0.758,0.145,1.808-0.289,2.481-0.545
	c0.77-0.296,0.617-0.196,1.315-0.006c0.979,0.27,1.963-0.121,2.859-0.453c1.432-0.531,2.75-0.725,4.233-1.048
	c1.233-0.275,2.473-0.621,3.629-1.14c1.141-0.765,2.383-0.964,3.729-0.603c0.33,0.084,0.722,0.052,1.049-0.037
	c0.504-0.138,0.886-0.83,1.159-1.209c1.232-1.71,4.055-1.955,5.885-2.667c0.317-0.125,0.606-0.537,0.351-0.869
	c0.019,0.016,0.038,0.035,0.055,0.056c0.416-0.063,0.489-0.563,0.351-0.874c-0.162-0.367-0.368-0.668-0.593-0.952
	c0.195,0,0.407-0.026,0.659-0.103c0.179-0.054,0.383-0.216,0.413-0.416c0.119-0.848-0.616-1.595,0.587-1.848
	c0.703-0.145,1.005-1.08,1.007-1.674c0.002-1.776,3.144-3.167,4.911-2.558c0.28,0.096,0.676-0.109,0.725-0.417
	c0.331-0.374,0.658-0.749,0.988-1.126c0.373-0.008,0.69-0.372,0.567-0.749c0.311-0.509,0.731-0.714,1.262-0.609
	c0.121,0,0.215-0.036,0.3-0.088c0.006,0.006,0.008,0.006,0.013,0.006c1.23,0.722,5.428,1.071,5.61,2.466
	c0.036,0.258,0.201,0.417,0.398,0.499c0.02,0.165,0.131,0.303,0.273,0.409c-0.586,0.854-0.836,1.842-1.038,2.866
	c-0.114,0.577,0.535,0.892,0.908,0.664c-0.214,0.93-0.348,1.862-0.393,2.887c-0.003,0.053,0.016,0.096,0.025,0.147
	c-0.002,0.047-0.01,0.092-0.002,0.144c0.266,1.437,0.919,2.739,1.32,4.141c0.475,1.666-0.047,3.623-0.037,5.328
	c0,0.037,0.017,0.07,0.022,0.105c-0.005,0.033-0.02,0.062-0.022,0.098c-0.027,1.778-0.192,3.534,0.014,5.31
	c0.163,1.421,0.627,2.799,0.914,4.197C66.252,36.499,59.758,35.378,53.292,36.768z"/>
<path fill="#1F1E21" d="M58.739,19.661c-0.468-1.335-0.949-2.921-0.326-4.158c0.489-0.973,1.845-1.184,2.598-0.485
	c0.673,0.629,0.862,1.692,0.889,2.583C60.595,17.978,59.632,18.706,58.739,19.661z"/>
<path id="jez_x5F_onama_x5F_oko" fill="#1F1E21" d="M64.607,25.017c-1.612,0.005-1.61,2.512,0.005,2.501
	C66.23,27.518,66.222,25.017,64.607,25.017z"/>
<path fill="#1F1E21" d="M67.372,28.583c-1.203,1.875-4.801,1.825-6.352,0.436c-0.565-0.507-1.402,0.329-0.834,0.84
	c2.137,1.914,6.571,1.874,8.21-0.68C68.809,28.535,67.784,27.944,67.372,28.583z"/>
<g id="jez_x5F_onama_x5F_kotac_x5F_l_x5F_fix">
	<path id="jez_x5F_onama_x5F_kotac_x5F_l" fill="#010101" d="M24.556,46.461c-3.059,1.223-7.246-0.825-8.258-3.694
		c-0.469-1.338-0.115-3.085,0.279-4.38c0.536-1.758,2.117-2.167,3.572-2.979c0.077-0.043,0.13-0.096,0.175-0.149
		C27.172,32.488,31.482,43.698,24.556,46.461z"/>
</g>
<g id="jez_x5F_onama_x5F_kotac_x5F_r_x5F_fix">
	<path id="jez_x5F_onama_x5F_kotac_x5F_r" fill="#010101" d="M54.623,46.411c-3.06,1.218-7.246-0.825-8.258-3.696
		c-0.473-1.339-0.118-3.084,0.277-4.38c0.534-1.757,2.116-2.162,3.574-2.977c0.074-0.043,0.129-0.095,0.174-0.15
		C57.234,32.432,61.548,43.645,54.623,46.411z"/>
</g>
<path fill="#1F1E21" d="M61.217,36.544c-0.001-0.006-0.001-0.009-0.003-0.016c-0.707-1.38-2.449-2.241-2.484-3.942
	c-0.014-0.76-1.195-0.76-1.181,0.001c0.017,0.885,0.392,1.671,0.886,2.389c0.531,0.77,1.325,1.306,1.759,2.152
	c0.266,0.522,0.926,0.288,1.06-0.157C63.072,38.218,61.862,37.11,61.217,36.544z"/>
<g>
	<path fill="#FFFFFF" d="M56.59,10.639c-0.351-0.528-0.808-0.97-1.16-1.496c-0.422-0.634-1.444-0.036-1.02,0.6
		c0.351,0.527,0.811,0.966,1.159,1.493C55.99,11.869,57.016,11.277,56.59,10.639z"/>
	<path fill="#FFFFFF" d="M52.979,12.95c-0.336-0.18-0.625-0.389-0.902-0.653c-0.549-0.529-1.386,0.308-0.834,0.836
		c0.343,0.333,0.719,0.613,1.141,0.839C53.058,14.332,53.652,13.309,52.979,12.95z"/>
	<path fill="#FFFFFF" d="M50.576,15.186c-0.637-0.079-1.268-0.198-1.906-0.27c-0.757-0.082-0.745,1.102,0.002,1.18
		c0.639,0.077,1.271,0.196,1.908,0.275C51.334,16.461,51.322,15.278,50.576,15.186z"/>
	<path fill="#FFFFFF" d="M47.928,18.663c-1.133,0.011-2.245,0.162-3.355,0.367c-0.75,0.138-0.43,1.276,0.317,1.139
		c1.007-0.187,2.013-0.314,3.039-0.325C48.692,19.835,48.691,18.656,47.928,18.663z"/>
	<path fill="#FFFFFF" d="M42.331,21.688c-1.598,0.398-3.151,0.913-4.807,1.006c-0.758,0.046-0.76,1.227,0.002,1.183
		c1.766-0.099,3.42-0.627,5.121-1.048C43.389,22.64,43.072,21.5,42.331,21.688z"/>
	<path fill="#FFFFFF" d="M24.25,26.43c-0.482,0.582-1.118,0.938-1.784,1.274c-0.679,0.342-0.08,1.361,0.599,1.017
		c0.749-0.38,1.482-0.802,2.022-1.456C25.572,26.683,24.737,25.844,24.25,26.43z"/>
	<path fill="#FFFFFF" d="M17.244,27.667c-0.527,0.497-1.181,0.812-1.783,1.204c-0.636,0.414-0.042,1.435,0.6,1.02
		c0.687-0.45,1.418-0.818,2.021-1.387C18.639,27.979,17.797,27.143,17.244,27.667z"/>
	<path fill="#FFFFFF" d="M9.356,31.493c-0.202,0.161-0.364,0.354-0.541,0.543c-0.522,0.559,0.315,1.394,0.836,0.837
		c0.176-0.192,0.338-0.385,0.543-0.547C10.789,31.851,9.945,31.02,9.356,31.493z"/>
	<path fill="#FFFFFF" d="M9.738,25.886c-1.011,0.488-2.077,0.753-2.974,1.461C6.167,27.816,7.011,28.646,7.6,28.18
		c0.793-0.623,1.842-0.841,2.736-1.274C11.025,26.576,10.422,25.556,9.738,25.886z"/>
	<path fill="#FFFFFF" d="M8.643,22.217c-1.025,0.782-2.055,1.554-3.257,2.054c-0.692,0.288-0.388,1.432,0.317,1.142
		c1.308-0.547,2.42-1.321,3.541-2.176C9.838,22.775,9.25,21.75,8.643,22.217z"/>
	<path fill="#FFFFFF" d="M13.759,13.958c-1.056,0.084-2.081,0.291-3.082,0.641c-0.713,0.249-0.406,1.389,0.318,1.14
		c0.902-0.315,1.814-0.524,2.767-0.597C14.517,15.083,14.521,13.897,13.759,13.958z"/>
	<path fill="#FFFFFF" d="M21.235,8.705c-1.137-0.072-2.262-0.238-3.402-0.129c-0.754,0.072-0.757,1.256,0,1.182
		c1.144-0.109,2.267,0.054,3.404,0.13C21.999,9.939,21.992,8.756,21.235,8.705z"/>
	<path fill="#FFFFFF" d="M26.968,5.788c-0.684-0.229-1.267-0.691-1.903-1.025c-0.674-0.349-1.272,0.67-0.596,1.025
		c0.733,0.383,1.397,0.878,2.184,1.145C27.38,7.176,27.685,6.035,26.968,5.788z"/>
	<path fill="#FFFFFF" d="M32.901,5.441c-0.429-0.849-1.188-1.428-1.985-1.912c-0.654-0.396-1.245,0.628-0.596,1.022
		c0.633,0.387,1.219,0.81,1.559,1.488C32.224,6.72,33.242,6.119,32.901,5.441z"/>
	<path fill="#FFFFFF" d="M38.002,3.458c-0.423-0.629-1.447-0.039-1.023,0.597c0.278,0.42,0.432,0.827,0.398,1.335
		c-0.052,0.759,1.132,0.754,1.184-0.001C38.607,4.688,38.384,4.033,38.002,3.458z"/>
	<path fill="#FFFFFF" d="M46.58,5.896c-0.1-0.238-0.286-0.45-0.571-0.434L45.93,5.466c-0.507,0.022-0.666,0.545-0.498,0.888
		c-0.09,0.709,0.997,0.998,1.138,0.266C46.619,6.38,46.678,6.13,46.58,5.896z"/>
	<path fill="#FFFFFF" d="M43.375,10.051c-1.854-0.646-3.581-1.626-5.517-2.032C37.115,7.861,36.801,9,37.547,9.156
		c1.93,0.405,3.663,1.391,5.515,2.036C43.784,11.441,44.092,10.298,43.375,10.051z"/>
	<path fill="#FFFFFF" d="M33.011,10.795c-3.103-0.248-6.209-0.327-9.324-0.327c-0.762,0-0.759,1.186,0.003,1.186
		c3.113,0,6.22,0.076,9.324,0.323C33.774,12.039,33.766,10.855,33.011,10.795z"/>
	<path fill="#FFFFFF" d="M25.575,13.073c-1.156,0.296-2.325,0.325-3.495,0.521c-1.377,0.234-2.718,0.645-4.1,0.832
		c-0.746,0.101-0.751,1.289,0.002,1.184c1.121-0.153,2.205-0.428,3.308-0.676c1.525-0.345,3.089-0.331,4.603-0.719
		C26.631,14.025,26.316,12.882,25.575,13.073z"/>
	<path fill="#FFFFFF" d="M20.201,16.547c-2.431,1.131-4.951,2.055-7.276,3.413c-0.656,0.384-0.059,1.404,0.6,1.019
		c2.323-1.355,4.843-2.282,7.276-3.415C21.491,17.247,20.888,16.228,20.201,16.547z"/>
	<path fill="#FFFFFF" d="M18.508,20.497c-0.801,0.396-1.617,0.756-2.381,1.227c-0.708,0.436-1.157,1.173-1.9,1.567
		c-0.676,0.356-0.078,1.378,0.598,1.023c0.64-0.338,1.115-0.86,1.634-1.346c0.715-0.671,1.782-1.027,2.648-1.455
		C19.79,21.177,19.187,20.159,18.508,20.497z"/>
	<path fill="#FFFFFF" d="M25.001,21.289c-2.137,0.288-3.993,1.285-5.944,2.133c-0.698,0.305-0.092,1.319,0.599,1.017
		c1.741-0.754,3.441-1.713,5.346-1.967C25.745,22.372,25.755,21.186,25.001,21.289z"/>
	<path fill="#FFFFFF" d="M32.943,23.198c-1.951,0.293-3.927,0.534-5.783,1.237c-0.704,0.266-0.398,1.41,0.318,1.141
		c1.854-0.707,3.831-0.944,5.782-1.234C34.012,24.227,33.689,23.093,32.943,23.198z"/>
	<path fill="#FFFFFF" d="M33.159,17.465c-2.543-0.133-5.165-0.153-7.641,0.508c-0.736,0.196-0.422,1.338,0.314,1.14
		c2.376-0.632,4.892-0.598,7.329-0.465C33.924,18.69,33.917,17.501,33.159,17.465z"/>
	<path fill="#FFFFFF" d="M39.549,14.12c-2.06,0-4.104-0.018-6.145,0.3c-0.753,0.123-0.428,1.26,0.315,1.14
		c1.931-0.302,3.884-0.259,5.832-0.259C40.314,15.301,40.312,14.12,39.549,14.12z"/>
	<path fill="#FFFFFF" d="M44.924,13.294c-0.741-0.036-1.428-0.37-2.177-0.407c-0.763-0.036-0.758,1.149,0.002,1.184
		c0.742,0.033,1.428,0.369,2.179,0.406C45.69,14.511,45.683,13.327,44.924,13.294z"/>
	<path fill="#FFFFFF" d="M52.286,9.284c-1.951-0.423-3.945-0.612-5.941-0.552c-0.762,0.02-0.76,1.202,0.003,1.182
		c1.892-0.057,3.776,0.109,5.625,0.512C52.72,10.587,53.034,9.448,52.286,9.284z"/>
	<path fill="#FFFFFF" d="M45.114,17.123c-2.522,0.587-5.112,0.798-7.618,1.441c-0.74,0.191-0.424,1.332,0.314,1.14
		c2.509-0.644,5.1-0.856,7.622-1.441C46.172,18.093,45.857,16.952,45.114,17.123z"/>
	<path fill="#FFFFFF" d="M34.728,20.114c-1.234,0.126-2.44,0.367-3.652,0.628c-1.192,0.255-2.458,0.273-3.584,0.758
		c-0.698,0.301-0.094,1.318,0.598,1.022c0.82-0.353,1.937-0.366,2.813-0.538c1.276-0.253,2.532-0.555,3.829-0.688
		C35.482,21.222,35.487,20.039,34.728,20.114z"/>
	<path fill="#FFFFFF" d="M28.575,15.313c-1.025,0.23-2.068,0.277-3.109,0.393c-0.749,0.086-0.756,1.269,0.003,1.182
		c1.147-0.126,2.295-0.179,3.424-0.434C29.637,16.289,29.318,15.147,28.575,15.313z"/>
	<path fill="#FFFFFF" d="M40.109,11.21c-0.3-0.071-0.598-0.086-0.905-0.086c-0.168,0-0.292,0.064-0.386,0.15
		c-0.621-0.009-1.248-0.097-1.859-0.145c-0.76-0.059-0.753,1.124,0.001,1.183c1.06,0.081,2.092,0.238,3.151,0.039
		C40.696,12.245,40.658,11.341,40.109,11.21z"/>
	<path fill="#FFFFFF" d="M43.968,6.865C43.293,6.3,42.496,5.99,41.739,5.553c-0.663-0.384-1.256,0.641-0.595,1.023
		c0.659,0.377,1.402,0.638,1.992,1.127C43.717,8.188,44.556,7.358,43.968,6.865z"/>
	<path fill="#FFFFFF" d="M33.777,8.502c-1.14-0.294-2.159-0.919-3.337-1.083c-0.745-0.102-1.063,1.038-0.311,1.142
		c1.178,0.162,2.197,0.789,3.336,1.081C34.202,9.832,34.515,8.692,33.777,8.502z"/>
	<path fill="#FFFFFF" d="M20.016,11.635c-1.88-0.243-3.765-0.013-5.648,0.009c-0.762,0.01-0.762,1.193,0.001,1.182
		c1.885-0.021,3.768-0.254,5.648-0.009C20.774,12.915,20.763,11.731,20.016,11.635z"/>
	<path fill="#FFFFFF" d="M13.22,16.954c-1.291-0.018-2.178,0.822-3.221,1.449c-0.654,0.39-0.06,1.409,0.596,1.016
		c0.83-0.492,1.603-1.298,2.628-1.284C13.984,18.148,13.982,16.965,13.22,16.954z"/>
	<path fill="#FFFFFF" d="M14.775,26.08c-1.326,0.777-2.644,1.569-3.945,2.392c-0.642,0.407-0.045,1.427,0.6,1.015
		c1.3-0.819,2.615-1.611,3.943-2.384C16.031,26.72,15.434,25.695,14.775,26.08z"/>
</g>
</svg>
