<svg xmlns="http://www.w3.org/2000/svg" viewBox="0 0 400 44.991" enable-background="new 0 0 400 44.991" class="svg-jez-onama svg-responsive">
	<g class="svg-jez-onama-inner">
		<path stroke="#000" stroke-width=".5" stroke-linecap="round" stroke-linejoin="round" d="M53.246 35.377c-.145.035-.241.105-.314.186-1.074.536-2.992 1.339-4.042 1.374-1.001.035-1.448.967-2.558.745-1.17-.233-2.063-.733-2.787.07-.627-.384-1.038-.71-1.954-.594-1.038.128-1.52 1.036-2.799.908-.422-.035-1.074.256-1.448.384-1.568.489-1.001-.303-1.737-.314-2.353-.012-4.392.571-6.732-.209-2.859-.943-6.696 1.468-9.58 1.712-1.484.117-2.256-.862-3.607-.64-2.727.431-4.247-2.003-5.875-3.749.084-.082.181-.198.278-.326.808-1.118 2.606-1.514 3.825-2.143 1.146-.594 2.365-1.002 3.559-1.502 1.484-.606 1.677.512 2.896.512 2.268 0 3.596-3.179 5.852-2.76.748.14 1.798-.28 2.473-.524.76-.291.603-.198 1.303-.012.977.256 1.955-.117 2.847-.431 1.424-.512 2.739-.699 4.223-1.013 1.219-.268 2.461-.594 3.607-1.095 1.134-.734 2.377-.932 3.716-.582.326.081.724.058 1.05-.035.495-.128.881-.792 1.146-1.165 1.231-1.642 4.042-1.875 5.864-2.562.314-.116.603-.512.35-.838l.06.058c.41-.058.483-.536.35-.838-.169-.349-.374-.64-.591-.92.193 0 .398-.023.652-.093.181-.058.386-.21.41-.396.121-.827-.615-1.537.591-1.782.7-.14.989-1.036 1.001-1.607 0-1.712 3.125-3.051 4.886-2.457.277.081.676-.105.724-.408.326-.361.652-.722.989-1.083.362 0 .676-.349.555-.722.314-.489.736-.687 1.255-.582.121 0 .217-.035.302-.082h.012c1.231.699 5.405 1.036 5.586 2.375.036.245.205.396.398.477.024.163.133.291.277.396-.591.815-.833 1.77-1.038 2.748-.109.559.531.862.905.64-.217.897-.35 1.793-.386 2.783l.024.14v.14c.265 1.374.905 2.632 1.315 3.971.47 1.607-.048 3.493-.049 5.124l.024.105-.024.093c-.024 1.712-.181 3.4.024 5.1.157 1.374.615 2.69.905 4.041-5.803-2.875-12.27-3.958-18.713-2.618z" fill="none"/>
		<path fill="#1F1E21" d="M73.081 37.616c-.305-1.424-.752-2.815-.927-4.261-.175-1.485.039-3.014.06-4.5l-.019-.1.019-.095c-.009-1.589.41-3.27.108-4.848-.303-1.555-1.104-2.952-1.414-4.505l.009-.03c.06-1.398.256-2.647.762-3.953.27-.705.501-1.46.581-2.21.143-1.308-.655-1.629-1.548-1.178-.116-.564-.311-.967-.725-1.473-.155-.185-.517-.217-.715-.085.056-.038-1.648-.608-1.901-.595-.25.012-1.256-.789-1.634-.893-.61-.158-1.062.095-1.564-.372-.459-.426-1.741-.032-2.308-.032-.638.002-.74.437-1.475.032-.652-.365-1.39-.41-2.011-.859-.083-.06-.161-.088-.239-.102l-.038-.019c-3.081-1.039-6.086-4.512-9.557-3.48-.191-.45-.347-.911-.441-1.388-.144-.576-.959-.503-1.134.004-.098.285-.181.572-.255.855-1.2-.76-2.482-1.22-3.926-1.592-2.287-.578-5.431.115-7.268-1.513-.226-.204-.611-.236-.831 0-.84.897-2.746-.486-3.706-.42-1.859.125-3.694 1.605-5.576.803-.301-.131-.622-.082-.807.209-.708 1.09-2.172.229-2.901 1.437-.869 1.435-1.421.86-3.002.702-.308-.031-.608.283-.589.567.147.353.075.643-.221.867-.318.032-.589.232-.588.566 0 .697-1.161 1.359-1.47 1.872-.465.767-.453.829-1.543.759-.956-.065-1.726-.275-2.678-.188-.341.029-.554.235-.585.569-.105 1.139-.893 2.055-1.616 2.745-.241.231-.347.754-.247 1.058.292.904-.326.782-1.141 1.066-.377.131-.526.489-.349.833.429.852-.241 2.216-.429 3.065-.4 1.809-1.248 2.99-2.547 4.33-1.559 1.609-3.242 2.982-4.433 4.887-.365.581.435 1.09.924.687 3.018-2.481 2.269 1.099 2.177 2.594-.023.374.393.637.745.545.519-.139.746-.201 1.006-.306.221 2.052-.85 4.022.162 6.042.176.351.658.332.925.111.785-.648 1.259-1.158 1.989-.454.092.086.227.191.373.27 2.054 1.941 3.537 4.649 6.713 4.654 1.142.001 2.025.428 3.186.455 1.896.046 3.621-.394 5.428-.923.862-.252 1.719-.503 2.59-.723 1.683-.42 2.765.235 4.294.554 1.777.372 3.424-.578 5.259-.155 1.413.322 2.861-.197 4.318-.233 1.101-.029 1.799-.893 3.091-.277.275.127.65.08.803-.208.21-.385 3.051.21 3.869-.295.849-.522 1.678-.266 2.492-.689 1.018-.523 2.107-.844 3.128-1.354 6.335-1.272 12.705-.101 18.356 2.871l.071.024.063.041c.576.246 1.791.6 2.031-.289.2-.756-.545-1.223-1.174-1.477zm-19.836-2.239c-.144.033-.238.103-.307.191-1.084.528-2.999 1.335-4.051 1.375-.998.033-1.439.966-2.554.741-1.171-.234-2.06-.739-2.781.066-.637-.379-1.039-.709-1.955-.595-1.039.13-1.52 1.038-2.805.915-.416-.04-1.068.26-1.448.378-1.561.492-.994-.303-1.739-.304-2.351-.019-4.384.565-6.725-.215-2.858-.948-6.698 1.471-9.578 1.708-1.49.122-2.259-.855-3.616-.641-2.722.441-4.239-2.002-5.878-3.741.09-.09.184-.197.284-.335.808-1.116 2.606-1.512 3.819-2.137 1.156-.598 2.366-1.003 3.561-1.498 1.487-.615 1.682.511 2.896.51 2.266-.002 3.601-3.186 5.849-2.767.755.139 1.8-.278 2.471-.524.767-.284.614-.188 1.31-.006.975.26 1.955-.117 2.848-.435 1.426-.51 2.738-.697 4.216-1.008 1.228-.265 2.463-.597 3.615-1.096 1.136-.735 2.373-.927 3.714-.58.329.081.719.05 1.045-.035.502-.133.883-.798 1.154-1.162 1.227-1.644 4.039-1.879 5.862-2.564.316-.12.603-.516.35-.836l.055.054c.414-.061.487-.541.349-.84-.161-.353-.366-.642-.591-.915.194 0 .406-.025.656-.1.178-.052.381-.208.411-.399.118-.815-.614-1.533.585-1.776.7-.139 1.001-1.038 1.003-1.609.002-1.708 3.131-3.044 4.892-2.46.278.092.674-.105.722-.4l.984-1.083c.371-.008.687-.357.564-.72.309-.489.729-.687 1.257-.586.121 0 .214-.034.299-.085l.013.006c1.225.694 5.406 1.029 5.587 2.37.036.248.2.401.396.48.02.159.131.291.272.393-.584.821-.833 1.771-1.034 2.755-.114.555.533.858.904.638-.214.894-.347 1.79-.391 2.775l.025.141-.002.139c.265 1.382.915 2.633 1.314 3.98.473 1.601-.047 3.483-.037 5.122l.022.101-.022.094c-.027 1.709-.192 3.397.013 5.104.163 1.366.624 2.69.91 4.034-5.806-2.877-12.273-3.954-18.713-2.618zM58.671 18.933c-.467-1.284-.945-2.807-.324-3.997.487-.935 1.837-1.138 2.587-.467.67.605.859 1.626.886 2.483-1.301.364-2.26 1.063-3.149 1.981z"/>
		<path id="jez_x5F_onama_x5F_oko" fill="#1F1E21" d="M64.514 24.082c-1.606.005-1.604 2.415.005 2.404 1.612-.001 1.604-2.405-.005-2.404z"/>
		<path fill="#1F1E21" d="M67.269 27.509c-1.198 1.802-4.782 1.755-6.326.419-.563-.488-1.396.317-.831.808 2.129 1.839 6.544 1.801 8.177-.654.41-.619-.61-1.187-1.02-.573z"/>
		<g class="correction">
			<g id="jez_x5F_onama_x5F_kotac_x5F_l_x5F_fix">
		    	<path id="jez_x5F_onama_x5F_kotac_x5F_l" fill="#010101" d="M25.676 44.45c-3.059 1.224-7.246-.825-8.258-3.694-.469-1.338-.115-3.085.279-4.38.536-1.758 2.117-2.167 3.572-2.979l.175-.149c6.85-2.771 11.159 8.439 4.232 11.202z"/>
			</g>
		</g>
		<g class="correction">
			<g id="jez_x5F_onama_x5F_kotac_x5F_r_x5F_fix">
			    <path id="jez_x5F_onama_x5F_kotac_x5F_r" fill="#010101" d="M53.588 44.454c-3.06 1.218-7.246-.825-8.258-3.696-.473-1.339-.117-3.084.277-4.38.534-1.757 2.117-2.162 3.574-2.978l.174-.15c6.845-2.775 11.158 8.438 4.233 11.204z"/>
			</g>
		</g>
		<path fill="#1F1E21" d="M61.138 35.161l-.003-.015c-.704-1.327-2.439-2.154-2.473-3.789-.014-.731-1.19-.731-1.176.001.017.85.39 1.607.883 2.296.529.74 1.319 1.256 1.752 2.068.265.502.922.276 1.056-.151 1.809 1.2.604.135-.039-.41z"/>
		<g fill="#fff">
		    <path d="M56.531 10.261l-1.155-1.438c-.42-.61-1.438-.035-1.016.577l1.154 1.435c.42.608 1.441.039 1.017-.574zM52.935 12.483c-.335-.173-.623-.374-.898-.628-.546-.508-1.38.296-.83.804.342.32.716.589 1.136.806.67.346 1.262-.638.592-.982zM50.541 14.633c-.635-.076-1.263-.19-1.899-.26-.753-.079-.742 1.059.002 1.135l1.9.264c.752.086.741-1.052-.003-1.139zM47.904 17.974c-1.128.011-2.236.156-3.342.353-.747.133-.429 1.227.316 1.094 1.003-.18 2.005-.302 3.027-.312.759-.008.759-1.141-.001-1.135zM42.329 20.882c-1.592.383-3.138.878-4.787.968-.755.044-.757 1.179.002 1.137 1.759-.095 3.406-.603 5.1-1.008.739-.181.423-1.277-.315-1.097zM24.321 25.442c-.48.56-1.114.902-1.777 1.224-.676.329-.08 1.309.597.978.746-.365 1.476-.771 2.014-1.399.483-.56-.349-1.366-.834-.803zM17.343 26.631c-.525.478-1.176.781-1.776 1.157-.634.398-.042 1.38.598.98.685-.433 1.412-.787 2.013-1.334.554-.503-.284-1.306-.835-.803zM9.487 30.31c-.201.155-.362.34-.538.522-.52.537.314 1.34.833.805.175-.185.337-.37.54-.526.592-.457-.248-1.256-.835-.801zM9.868 24.92c-1.007.469-2.068.723-2.962 1.405-.596.45.245 1.248.832.8.79-.599 1.834-.808 2.725-1.225.686-.317.086-1.297-.595-.98zM8.777 21.393c-1.021.752-2.046 1.494-3.244 1.974-.689.277-.386 1.376.316 1.097 1.303-.525 2.41-1.27 3.526-2.092.592-.442.007-1.428-.598-.979zM13.873 13.454c-1.052.081-2.073.28-3.07.616-.71.24-.404 1.336.317 1.095.898-.303 1.807-.504 2.756-.574.752-.056.756-1.196-.003-1.137zM21.32 8.404c-1.133-.069-2.253-.229-3.388-.124-.75.069-.754 1.208 0 1.136 1.139-.105 2.258.052 3.39.125.758.049.751-1.088-.002-1.137zM27.03 5.6c-.681-.22-1.262-.664-1.895-.985-.672-.335-1.268.644-.594.985.73.368 1.391.844 2.175 1.101.723.233 1.027-.864.314-1.101zM32.938 5.266c-.427-.816-1.184-1.373-1.977-1.838-.652-.381-1.24.604-.594.983.631.372 1.214.779 1.553 1.431.344.653 1.358.075 1.018-.576zM38.019 3.36c-.421-.606-1.441-.038-1.019.573.277.404.43.795.396 1.284-.052.73 1.127.724 1.179-.001.047-.674-.176-1.304-.556-1.856zM46.562 5.702c-.099-.229-.284-.432-.568-.417l-.079.004c-.505.021-.664.523-.496.854-.09.681.993.959 1.133.256.048-.231.108-.472.01-.697zM43.37 9.696c-1.846-.62-3.567-1.563-5.495-1.953-.74-.151-1.053.944-.31 1.094 1.922.389 3.648 1.337 5.493 1.957.719.239 1.025-.86.312-1.098zM33.047 10.413c-3.09-.238-6.184-.314-9.286-.314-.759 0-.756 1.14.002 1.14 3.101 0 6.195.072 9.286.31.758.059.75-1.079-.002-1.136zM25.641 12.602c-1.151.285-2.315.312-3.481.501-1.372.225-2.707.62-4.084.8-.743.097-.748 1.239.002 1.138 1.116-.147 2.196-.412 3.295-.65 1.519-.332 3.077-.318 4.584-.692.736-.182.422-1.28-.316-1.097zM20.289 15.942c-2.422 1.088-4.932 1.976-7.247 3.281-.654.369-.059 1.35.597.98 2.314-1.303 4.824-2.194 7.247-3.283.688-.305.088-1.285-.597-.978zM18.603 19.739c-.798.381-1.611.727-2.372 1.18-.705.419-1.152 1.128-1.892 1.507-.674.342-.078 1.325.595.983.637-.325 1.11-.827 1.628-1.294.712-.645 1.775-.987 2.637-1.398.68-.324.08-1.303-.596-.978zM25.069 20.5c-2.128.277-3.977 1.235-5.92 2.05-.695.293-.091 1.268.597.978 1.734-.725 3.428-1.646 5.324-1.891.74-.096.75-1.236-.001-1.137zM32.979 22.335c-1.943.282-3.912.514-5.759 1.189-.701.256-.397 1.355.317 1.097 1.846-.68 3.816-.908 5.759-1.187.748-.11.426-1.2-.317-1.099zM33.195 16.824c-2.533-.128-5.144-.146-7.611.489-.733.188-.421 1.286.313 1.096 2.366-.608 4.872-.575 7.299-.447.761.04.754-1.104-.001-1.138zM39.559 13.608c-2.052 0-4.088-.017-6.12.289-.75.118-.427 1.211.314 1.095 1.923-.291 3.869-.249 5.809-.249.758 0 .756-1.135-.003-1.135zM44.912 12.814l-2.168-.391c-.76-.034-.755 1.105.001 1.138l2.17.39c.76.033.753-1.105-.003-1.137zM52.245 8.959c-1.943-.406-3.929-.588-5.917-.53-.759.019-.757 1.155.003 1.137 1.884-.055 3.76.104 5.603.492.743.153 1.056-.942.311-1.099zM45.102 16.494c-2.512.564-5.091.767-7.588 1.385-.737.183-.423 1.281.313 1.096 2.499-.619 5.079-.823 7.591-1.385.737-.163.423-1.26-.316-1.096zM34.757 19.37c-1.229.121-2.43.352-3.637.603-1.187.246-2.448.263-3.57.729-.695.29-.093 1.267.595.983.816-.34 1.929-.352 2.802-.517 1.271-.243 2.522-.534 3.814-.661.747-.072.752-1.209-.004-1.137zM28.63 14.756c-1.021.221-2.059.266-3.097.378-.746.083-.753 1.22.002 1.137 1.142-.121 2.286-.172 3.41-.417.742-.161.424-1.258-.315-1.098zM40.117 10.811c-.299-.068-.596-.083-.901-.083-.167 0-.291.062-.384.144-.619-.009-1.243-.093-1.851-.139-.757-.057-.75 1.081.001 1.137 1.056.078 2.084.229 3.138.037.582-.101.544-.97-.003-1.096zM43.961 6.634c-.672-.543-1.467-.841-2.22-1.26-.661-.369-1.251.616-.593.983.656.362 1.396.613 1.984 1.084.578.465 1.414-.333.829-.807zM33.81 8.208c-1.135-.283-2.15-.884-3.323-1.041-.742-.098-1.058.998-.31 1.097 1.173.156 2.188.759 3.323 1.039.734.184 1.045-.912.31-1.095zM20.105 11.22c-1.872-.234-3.75-.012-5.625.009-.759.01-.759 1.147.001 1.136 1.878-.02 3.752-.244 5.625-.009.753.095.743-1.043-.001-1.136zM13.336 16.334c-1.285-.017-2.169.791-3.208 1.393-.652.375-.06 1.355.594.977.827-.473 1.597-1.247 2.617-1.234.758.011.756-1.125-.003-1.136zM14.884 25.106c-1.321.747-2.633 1.508-3.929 2.3-.64.391-.045 1.372.598.976 1.295-.788 2.604-1.548 3.928-2.292.654-.369.059-1.354-.597-.984z"/>
		</g>
	</g>
</svg>
