<svg xmlns="http://www.w3.org/2000/svg" viewBox="0 0 100 100" enable-background="new 0 0 100 100">
    <g id="bird_1_" fill="#010101">
        <path id="bird_x5F_body" d="M55.148 41.627c-1.65 1.541-3.781 2.539-5.962 3.036-1.303.297-2.689.379-4.024.341-1.151-.038-3.393-.345-3.814-1.667v-.084l-.05-.155c-.038-.496-.112-.981.012-1.48.137-.551.75-.778 1.188-1.035.207-.12.02-.444-.191-.323-.456.267-.909.478-1.212.927-.207.306-.251.671-.243 1.044-.481-.605-1.204-.978-1.968-1.326-1.448-.662-3.248-1.568-3.822-3.162l-.032-.055v-.015c-.001-.24-.374-.238-.373.002.005 1.858.071 3.789 1.419 5.215.622.656 1.452 1.057 2.326 1.236l.242.027-.195.122c-.954.661-2.141 1.098-3.312 1.007l-.005.006c-.159-.15-.396.103-.246.275.934 1.101 1.906 2.041 3.423 1.48 1.169-.432 2.052-1.604 2.615-2.738.166 1.311.674 2.517 1.421 3.637.929 1.395 2.302 2.077 3.62 3.027.889.642 1.723 1.108 2.649 1.425-.23 1.116-.846 2.117-1.466 3.075l-.031.078-.014.04-.083-.001c-.637.11-1.372.421-1.75.966-.138.201.186.384.324.187.236-.335.663-.556 1.085-.685-.254.364-.391.801-.506 1.26-.058.235.304.335.36.102.115-.458.24-.918.535-1.279.006.379.075.758.282 1.079.13.203.453.015.322-.188-.258-.399-.252-.893-.219-1.352l.018-.018c.635-.985 1.258-2.012 1.504-3.149.427.125.875.221 1.359.288l.467.041-.006.041c-.003 1.066-.646 2.033-1.25 2.87l-.025.06c-.384.074-.729.252-1.1.375-.23.073-.131.432.098.36.188-.061.373-.144.559-.223-.129.232-.209.488-.193.763.014.24.389.24.374 0-.015-.273.086-.515.236-.728.029.389.12.751.405 1.06.163.175.428-.091.261-.265-.272-.295-.301-.668-.306-1.043.072-.055.087-.154.057-.229.63-.877 1.256-1.888 1.257-2.998l-.002-.019c1.403.046 2.591-.295 3.981-.848.59-.235 1.137-.449 1.665-.812.62-.429.971-1.046 1.444-1.608.557-.666 1.296-1.15 1.866-1.802.562-.644.958-1.459 1.311-2.227.68-1.472 1.146-3.168 1.304-4.778.067-.697.057-1.239.36-1.902.214-.469.482-.92.757-1.358.533-.838 1.282-1.635 2.141-2.138l.023-.023c.201-.022.191-.352-.035-.37-1.117-.074-2.068-.208-3.121.234-1.027.435-2.07.962-3.037 1.517-1.175.675-2.029 1.739-2.863 2.808l-1.814 2.072z"/>
        <path id="wing_x5F_left" d="M56.961 39.554l-1.813 2.073c-1.914.035-3.868.219-5.759-.165-1.579-.319-3.557-.98-4.654-2.239-1.003-1.142-1.459-2.933-1.702-4.401-.291-1.748.432-2.966 1.012-4.528.084-.225.441-.128.358.097l-.005.014.013.057c.041 3.042 3.546 4.277 6.179 5.232 0 .001 4.399 1.184 6.371 3.86z"/>
        <path id="wing_x5F_right" d="M55.148 41.627l1.813-2.073c-.096-1.684-.641-3.282-1.725-4.598-.702-.858-1.614-1.397-2.221-2.354-.598-.937-1.07-2.563-.657-3.664l.005-.013c.135-.174-.116-.418-.279-.248-1.944 2.062-2.153 4.391-1.495 7.018.001 0 1.378 4.786 4.559 5.932z"/>
    </g>
</svg>
