<svg xmlns="http://www.w3.org/2000/svg" viewBox="0 0 643.785 84" enable-background="new 0 0 643.785 84" class="svg-ptica-onama svg-responsive">
	<g class="svg-ptica-onama-inner">
		<g id="spaga" fill="#010101">
		    <path d="M405.992 64.9c-25.63.431-49.611-8.851-73.141-17.939-11.4-4.4-23.012-9.451-35.085-11.632-11.43-2.063-23.231-.975-34.566 1.138-18.601 3.467-36.485 10.369-54.241 16.758-14.297 5.145-29.247 10.481-44.52 11.505-3.085.206-6.706.233-9.98-.578 3.055-2.537 5.69-6.075 5.289-9.586-.75-6.551-13.375-7.673-15.532-1.574-1.369 3.884 1.444 8.201 4.445 10.458.596.447 1.235.82 1.901 1.153-7.207 4.312-16.615 3.883-24.826 3.377-11.158-.688-22.15-2.06-32.918-5.14-12.339-3.525-24.196-8.537-36.484-12.233-8.516-2.56-18.634-6.135-27.511-3.383-7.554 2.342-11.474 10.131-11.689 17.538-.178 6.182 2.261 13.038 7.689 16.386.949.586 1.814-.905.868-1.487-9.287-5.734-8.459-20.325-1.682-27.473 7.941-8.38 22.648-2.603 31.868.081 12.322 3.589 24.176 8.592 36.484 12.234 10.162 3.008 20.451 4.157 30.966 5.025 8.738.722 18.355 1.235 26.545-2.439.888-.399 1.864-.956 2.847-1.624 3.738 1.198 8.045 1.179 11.72.988 14.879-.78 29.603-6.087 43.517-11.041 17.352-6.182 34.668-12.759 52.703-16.675 12.971-2.821 26.441-3.849 39.52-1.195 11.982 2.431 23.644 7.773 35.007 12.16 22.763 8.789 46.054 17.335 70.805 16.92 1.111-.017 1.115-1.74.001-1.722zm-258.527-4.987c-3.688-4.874-1.144-9.362 4.697-9.09 2.015.095 4.25.926 5.411 2.646 1.864 2.762-1.296 6.253-3.069 8.059-.703.718-1.457 1.343-2.231 1.922-1.877-.754-3.553-1.875-4.808-3.537zM405.392 66.623c24.751.416 48.043-8.131 70.805-16.92 11.363-4.388 23.025-9.729 35.007-12.16 13.079-2.655 26.548-1.626 39.52 1.195 18.035 3.916 35.351 10.493 52.703 16.675 13.913 4.955 28.638 10.262 43.517 11.041 3.674.191 7.981.209 11.72-.988.983.668 1.958 1.225 2.847 1.624 8.19 3.674 17.806 3.161 26.545 2.439 10.515-.868 20.805-2.017 30.966-5.025 12.308-3.642 24.163-8.645 36.484-12.234 9.22-2.684 23.927-8.461 31.868-.081 6.777 7.148 7.604 21.74-1.682 27.473-.945.582-.081 2.073.868 1.487 5.427-3.348 7.867-10.204 7.689-16.386-.215-7.407-4.135-15.196-11.689-17.538-8.876-2.752-18.994.823-27.511 3.383-12.288 3.696-24.146 8.708-36.484 12.233-10.767 3.08-21.76 4.452-32.918 5.14-8.21.506-17.618.935-24.826-3.377.666-.333 1.306-.707 1.901-1.153 3.001-2.257 5.814-6.574 4.445-10.458-2.157-6.1-14.782-4.977-15.532 1.574-.4 3.511 2.234 7.049 5.289 9.586-3.274.811-6.895.784-9.98.578-15.273-1.024-30.222-6.36-44.52-11.505-17.756-6.39-35.64-13.292-54.241-16.758-11.336-2.113-23.136-3.202-34.566-1.138-12.073 2.181-23.685 7.232-35.085 11.632-23.53 9.087-47.511 18.369-73.141 17.939-1.113-.019-1.11 1.704.001 1.722zm253.719-3.171c-.774-.579-1.528-1.205-2.231-1.922-1.773-1.807-4.933-5.297-3.069-8.059 1.161-1.72 3.395-2.551 5.411-2.646 5.841-.272 8.385 4.216 4.697 9.09-1.255 1.66-2.931 2.781-4.808 3.537z"/>
		</g>
		<path id="bird_x5F_body" fill="#020202" d="M14.898 17.71c-1.351-1.731-2.734-3.454-4.637-4.547-1.566-.899-3.255-1.752-4.918-2.457-1.705-.716-3.245-.499-5.054-.379-.366.029-.382.564-.057.599l.037.037c1.391.815 2.604 2.105 3.467 3.462.445.709.879 1.44 1.226 2.199.491 1.074.475 1.951.583 3.08.256 2.607 1.011 5.354 2.112 7.738.572 1.244 1.213 2.564 2.123 3.607.923 1.056 2.12 1.84 3.022 2.918.766.91 1.334 1.909 2.339 2.604.855.588 1.741.934 2.696 1.315 2.251.896 4.175 1.448 6.447 1.373l-.003.031c.002 1.798 1.015 3.435 2.036 4.855-.049.121-.024.282.092.371-.008.607-.055 1.211-.496 1.689-.27.282.159.713.423.429.462-.5.609-1.087.656-1.717.243.345.406.737.382 1.179-.024.389.583.389.606 0 .026-.445-.104-.86-.313-1.236.301.128.601.262.905.361.371.117.531-.465.159-.583-.601-.199-1.16-.487-1.781-.607l-.04-.097c-.978-1.355-2.019-2.922-2.024-4.648l-.01-.066c.246-.015.496-.029.756-.066.784-.108 1.509-.264 2.201-.466.398 1.841 1.407 3.505 2.436 5.1l.029.029c.053.743.063 1.543-.355 2.19-.212.329.311.633.521.304.335-.52.447-1.134.457-1.747.478.585.68 1.33.866 2.071.091.377.677.215.583-.165-.186-.743-.408-1.451-.819-2.041.683.209 1.375.567 1.757 1.109.223.319.748.023.525-.303-.612-.883-1.802-1.386-2.834-1.564l-.134.002-.023-.065-.05-.126c-1.004-1.551-2.002-3.173-2.374-4.98 1.5-.513 2.85-1.268 4.29-2.308 2.134-1.538 4.358-2.643 5.862-4.902 1.21-1.814 2.032-3.767 2.301-5.89.912 1.836 2.342 3.734 4.235 4.434 2.457.909 4.031-.614 5.543-2.397.243-.279-.141-.688-.398-.445l-.008-.01c-1.896.147-3.819-.56-5.364-1.631l-.316-.198.392-.044c1.415-.29 2.76-.939 3.767-2.002 2.183-2.309 2.29-5.437 2.298-8.446.002-.389-.602-.392-.604-.003v.024l-.052.089c-.93 2.581-3.845 4.049-6.19 5.121-1.237.564-2.408 1.168-3.187 2.147.013-.604-.058-1.195-.394-1.691-.491-.727-1.224-1.069-1.963-1.501-.342-.196-.645.329-.309.523.709.416 1.702.784 1.924 1.676.201.808.081 1.594.019 2.397l-.081.251v.136c-.682 2.141-4.313 2.638-6.177 2.7-2.162.062-4.407-.071-6.517-.552-3.532-.805-6.983-2.421-9.655-4.917l-2.936-3.353z"/>
		<g class="correction">
			<g id="wing_x5F_onama_x5F_right_x5F_fix">
			    <path id="wing_x5F_onama_x5F_right" fill="#020202" d="M25.217 11.457c4.264-1.547 9.94-3.547 10.007-8.473l.021-.092-.008-.023c-.134-.364.444-.521.58-.157.939 2.53 2.11 4.502 1.639 7.333-.394 2.377-1.132 5.278-2.756 7.127-1.777 2.039-4.98 3.109-7.537 3.626-3.062.622-6.227.324-9.327.267l-2.936-3.357c3.193-4.334 10.317-6.249 10.317-6.251z"/>
			</g>
		</g>
		<g class="correction">
			<g id="wing_x5F_onama_x5F_left_x5F_fix">
			    <path id="wing_x5F_onama_x5F_left" fill="#020202" d="M25.218 11.459c1.066-4.254.727-8.026-2.421-11.365-.264-.275-.67.12-.452.402l.008.021c.669 1.783-.096 4.416-1.064 5.934-.983 1.55-2.46 2.423-3.597 3.812-1.756 2.131-2.638 4.719-2.794 7.446l2.936 3.357c5.153-1.857 7.383-9.607 7.384-9.607z"/>
			</g>
		</g>
	</g>
</svg>
