<?xml version="1.0" encoding="utf-8"?>
<!-- Generator: Adobe Illustrator 17.1.0, SVG Export Plug-In . SVG Version: 6.00 Build 0)  -->
<!DOCTYPE svg PUBLIC "-//W3C//DTD SVG 1.1//EN" "http://www.w3.org/Graphics/SVG/1.1/DTD/svg11.dtd">
<svg version="1.1" id="bird" xmlns="http://www.w3.org/2000/svg" xmlns:xlink="http://www.w3.org/1999/xlink" x="0px" y="0px"
	 viewBox="0 0 100 100" enable-background="new 0 0 100 100" xml:space="preserve">
<g id="bird_1_">
	<path id="bird_x5F_body" fill="#010101" d="M55.148,41.627c-1.65,1.541-3.781,2.539-5.962,3.036
		c-1.303,0.297-2.689,0.379-4.024,0.341c-1.151-0.038-3.393-0.345-3.814-1.667c0.006-0.027,0.008-0.056,0-0.084
		c-0.014-0.055-0.033-0.103-0.05-0.155c-0.038-0.496-0.112-0.981,0.012-1.48c0.137-0.551,0.75-0.778,1.188-1.035
		c0.207-0.12,0.02-0.444-0.191-0.323c-0.456,0.267-0.909,0.478-1.212,0.927c-0.207,0.306-0.251,0.671-0.243,1.044
		c-0.481-0.605-1.204-0.978-1.968-1.326c-1.448-0.662-3.248-1.568-3.822-3.162c-0.007-0.019-0.016-0.04-0.032-0.055v-0.015
		c-0.001-0.24-0.374-0.238-0.373,0.002c0.005,1.858,0.071,3.789,1.419,5.215c0.622,0.656,1.452,1.057,2.326,1.236
		c0.083,0.015,0.163,0.021,0.242,0.027c-0.067,0.04-0.13,0.078-0.195,0.122c-0.954,0.661-2.141,1.098-3.312,1.007
		c-0.002,0-0.002,0.006-0.005,0.006c-0.159-0.15-0.396,0.103-0.246,0.275c0.934,1.101,1.906,2.041,3.423,1.48
		c1.169-0.432,2.052-1.604,2.615-2.738c0.166,1.311,0.674,2.517,1.421,3.637c0.929,1.395,2.302,2.077,3.62,3.027
		c0.889,0.642,1.723,1.108,2.649,1.425c-0.23,1.116-0.846,2.117-1.466,3.075c-0.017,0.029-0.028,0.056-0.031,0.078
		c-0.007,0.011-0.009,0.027-0.014,0.04c-0.025-0.007-0.054-0.009-0.083-0.001c-0.637,0.11-1.372,0.421-1.75,0.966
		c-0.138,0.201,0.186,0.384,0.324,0.187c0.236-0.335,0.663-0.556,1.085-0.685c-0.254,0.364-0.391,0.801-0.506,1.26
		c-0.058,0.235,0.304,0.335,0.36,0.102c0.115-0.458,0.24-0.918,0.535-1.279c0.006,0.379,0.075,0.758,0.282,1.079
		c0.13,0.203,0.453,0.015,0.322-0.188c-0.258-0.399-0.252-0.893-0.219-1.352c0.004-0.009,0.012-0.01,0.018-0.018
		c0.635-0.985,1.258-2.012,1.504-3.149c0.427,0.125,0.875,0.221,1.359,0.288c0.161,0.023,0.315,0.032,0.467,0.041
		c-0.001,0.017-0.006,0.025-0.006,0.041c-0.003,1.066-0.646,2.033-1.25,2.87c-0.016,0.02-0.023,0.04-0.025,0.06
		c-0.384,0.074-0.729,0.252-1.1,0.375c-0.23,0.073-0.131,0.432,0.098,0.36c0.188-0.061,0.373-0.144,0.559-0.223
		c-0.129,0.232-0.209,0.488-0.193,0.763c0.014,0.24,0.389,0.24,0.374,0c-0.015-0.273,0.086-0.515,0.236-0.728
		c0.029,0.389,0.12,0.751,0.405,1.06c0.163,0.175,0.428-0.091,0.261-0.265c-0.272-0.295-0.301-0.668-0.306-1.043
		c0.072-0.055,0.087-0.154,0.057-0.229c0.63-0.877,1.256-1.888,1.257-2.998c0-0.006-0.001-0.009-0.002-0.019
		c1.403,0.046,2.591-0.295,3.981-0.848c0.59-0.235,1.137-0.449,1.665-0.812c0.62-0.429,0.971-1.046,1.444-1.608
		c0.557-0.666,1.296-1.15,1.866-1.802c0.562-0.644,0.958-1.459,1.311-2.227c0.68-1.472,1.146-3.168,1.304-4.778
		c0.067-0.697,0.057-1.239,0.36-1.902c0.214-0.469,0.482-0.92,0.757-1.358c0.533-0.838,1.282-1.635,2.141-2.138
		c0.013-0.01,0.016-0.015,0.023-0.023c0.201-0.022,0.191-0.352-0.035-0.37c-1.117-0.074-2.068-0.208-3.121,0.234
		c-1.027,0.435-2.07,0.962-3.037,1.517c-1.175,0.675-2.029,1.739-2.863,2.808L55.148,41.627z"/>
	<path id="wing_x5F_left" fill="#010101" d="M56.961,39.554l-1.813,2.073c-1.914,0.035-3.868,0.219-5.759-0.165
		c-1.579-0.319-3.557-0.98-4.654-2.239c-1.003-1.142-1.459-2.933-1.702-4.401c-0.291-1.748,0.432-2.966,1.012-4.528
		c0.084-0.225,0.441-0.128,0.358,0.097c-0.001,0.003-0.004,0.009-0.005,0.014c0.005,0.018,0.011,0.035,0.013,0.057
		c0.041,3.042,3.546,4.277,6.179,5.232C50.59,35.695,54.989,36.878,56.961,39.554z"/>
	<path id="wing_x5F_right" fill="#010101" d="M55.148,41.627l1.813-2.073c-0.096-1.684-0.641-3.282-1.725-4.598
		c-0.702-0.858-1.614-1.397-2.221-2.354c-0.598-0.937-1.07-2.563-0.657-3.664c0.005-0.004,0-0.011,0.005-0.013
		c0.135-0.174-0.116-0.418-0.279-0.248c-1.944,2.062-2.153,4.391-1.495,7.018C50.59,35.695,51.967,40.481,55.148,41.627z"/>
</g>
</svg>
