<?xml version="1.0" encoding="utf-8"?>
<!-- Generator: Adobe Illustrator 17.1.0, SVG Export Plug-In . SVG Version: 6.00 Build 0)  -->
<!DOCTYPE svg PUBLIC "-//W3C//DTD SVG 1.1//EN" "http://www.w3.org/Graphics/SVG/1.1/DTD/svg11.dtd">
<svg version="1.1" id="Layer_1" xmlns="http://www.w3.org/2000/svg" xmlns:xlink="http://www.w3.org/1999/xlink" x="0px" y="0px"
	 viewBox="0 0 643.785 84" enable-background="new 0 0 643.785 84" xml:space="preserve">
<g id="spaga">
	<path fill="#010101" d="M405.992,64.9c-25.63,0.431-49.611-8.851-73.141-17.939c-11.4-4.4-23.012-9.451-35.085-11.632
		c-11.43-2.063-23.231-0.975-34.566,1.138c-18.601,3.467-36.485,10.369-54.241,16.758c-14.297,5.145-29.247,10.481-44.52,11.505
		c-3.085,0.206-6.706,0.233-9.98-0.578c3.055-2.537,5.69-6.075,5.289-9.586c-0.75-6.551-13.375-7.673-15.532-1.574
		c-1.369,3.884,1.444,8.201,4.445,10.458c0.596,0.447,1.235,0.82,1.901,1.153c-7.207,4.312-16.615,3.883-24.826,3.377
		c-11.158-0.688-22.15-2.06-32.918-5.14c-12.339-3.525-24.196-8.537-36.484-12.233c-8.516-2.56-18.634-6.135-27.511-3.383
		c-7.554,2.342-11.474,10.131-11.689,17.538c-0.178,6.182,2.261,13.038,7.689,16.386c0.949,0.586,1.814-0.905,0.868-1.487
		c-9.287-5.734-8.459-20.325-1.682-27.473c7.941-8.38,22.648-2.603,31.868,0.081c12.322,3.589,24.176,8.592,36.484,12.234
		c10.162,3.008,20.451,4.157,30.966,5.025c8.738,0.722,18.355,1.235,26.545-2.439c0.888-0.399,1.864-0.956,2.847-1.624
		c3.738,1.198,8.045,1.179,11.72,0.988c14.879-0.78,29.603-6.087,43.517-11.041c17.352-6.182,34.668-12.759,52.703-16.675
		c12.971-2.821,26.441-3.849,39.52-1.195c11.982,2.431,23.644,7.773,35.007,12.16c22.763,8.789,46.054,17.335,70.805,16.92
		C407.102,66.605,407.106,64.882,405.992,64.9z M147.465,59.913c-3.688-4.874-1.144-9.362,4.697-9.09
		c2.015,0.095,4.25,0.926,5.411,2.646c1.864,2.762-1.296,6.253-3.069,8.059c-0.703,0.718-1.457,1.343-2.231,1.922
		C150.396,62.696,148.72,61.575,147.465,59.913z"/>
	<path fill="#010101" d="M405.392,66.623c24.751,0.416,48.043-8.131,70.805-16.92c11.363-4.388,23.025-9.729,35.007-12.16
		c13.079-2.655,26.548-1.626,39.52,1.195c18.035,3.916,35.351,10.493,52.703,16.675c13.913,4.955,28.638,10.262,43.517,11.041
		c3.674,0.191,7.981,0.209,11.72-0.988c0.983,0.668,1.958,1.225,2.847,1.624c8.19,3.674,17.806,3.161,26.545,2.439
		c10.515-0.868,20.805-2.017,30.966-5.025c12.308-3.642,24.163-8.645,36.484-12.234c9.22-2.684,23.927-8.461,31.868-0.081
		c6.777,7.148,7.604,21.74-1.682,27.473c-0.945,0.582-0.081,2.073,0.868,1.487c5.427-3.348,7.867-10.204,7.689-16.386
		c-0.215-7.407-4.135-15.196-11.689-17.538c-8.876-2.752-18.994,0.823-27.511,3.383c-12.288,3.696-24.146,8.708-36.484,12.233
		c-10.767,3.08-21.76,4.452-32.918,5.14c-8.21,0.506-17.618,0.935-24.826-3.377c0.666-0.333,1.306-0.707,1.901-1.153
		c3.001-2.257,5.814-6.574,4.445-10.458c-2.157-6.1-14.782-4.977-15.532,1.574c-0.4,3.511,2.234,7.049,5.289,9.586
		c-3.274,0.811-6.895,0.784-9.98,0.578c-15.273-1.024-30.222-6.36-44.52-11.505c-17.756-6.39-35.64-13.292-54.241-16.758
		c-11.336-2.113-23.136-3.202-34.566-1.138c-12.073,2.181-23.685,7.232-35.085,11.632c-23.53,9.087-47.511,18.369-73.141,17.939
		C404.278,64.882,404.281,66.605,405.392,66.623z M659.111,63.452c-0.774-0.579-1.528-1.205-2.231-1.922
		c-1.773-1.807-4.933-5.297-3.069-8.059c1.161-1.72,3.395-2.551,5.411-2.646c5.841-0.272,8.385,4.216,4.697,9.09
		C662.664,61.575,660.988,62.696,659.111,63.452z"/>
</g>
<path id="bird_x5F_body" fill="#020202" d="M14.898,17.71c-1.351-1.731-2.734-3.454-4.637-4.547
	c-1.566-0.899-3.255-1.752-4.918-2.457c-1.705-0.716-3.245-0.499-5.054-0.379c-0.366,0.029-0.382,0.564-0.057,0.599
	c0.011,0.013,0.016,0.021,0.037,0.037c1.391,0.815,2.604,2.105,3.467,3.462c0.445,0.709,0.879,1.44,1.226,2.199
	c0.491,1.074,0.475,1.951,0.583,3.08c0.256,2.607,1.011,5.354,2.112,7.738c0.572,1.244,1.213,2.564,2.123,3.607
	c0.923,1.056,2.12,1.84,3.022,2.918c0.766,0.91,1.334,1.909,2.339,2.604c0.855,0.588,1.741,0.934,2.696,1.315
	c2.251,0.896,4.175,1.448,6.447,1.373c-0.002,0.016-0.003,0.021-0.003,0.031c0.002,1.798,1.015,3.435,2.036,4.855
	c-0.049,0.121-0.024,0.282,0.092,0.371c-0.008,0.607-0.055,1.211-0.496,1.689c-0.27,0.282,0.159,0.713,0.423,0.429
	c0.462-0.5,0.609-1.087,0.656-1.717c0.243,0.345,0.406,0.737,0.382,1.179c-0.024,0.389,0.583,0.389,0.606,0
	c0.026-0.445-0.104-0.86-0.313-1.236c0.301,0.128,0.601,0.262,0.905,0.361c0.371,0.117,0.531-0.465,0.159-0.583
	c-0.601-0.199-1.16-0.487-1.781-0.607c-0.003-0.032-0.015-0.065-0.04-0.097c-0.978-1.355-2.019-2.922-2.024-4.648
	c0-0.026-0.008-0.039-0.01-0.066c0.246-0.015,0.496-0.029,0.756-0.066c0.784-0.108,1.509-0.264,2.201-0.466
	c0.398,1.841,1.407,3.505,2.436,5.1c0.01,0.013,0.023,0.015,0.029,0.029c0.053,0.743,0.063,1.543-0.355,2.19
	c-0.212,0.329,0.311,0.633,0.521,0.304c0.335-0.52,0.447-1.134,0.457-1.747c0.478,0.585,0.68,1.33,0.866,2.071
	c0.091,0.377,0.677,0.215,0.583-0.165c-0.186-0.743-0.408-1.451-0.819-2.041c0.683,0.209,1.375,0.567,1.757,1.109
	c0.223,0.319,0.748,0.023,0.525-0.303c-0.612-0.883-1.802-1.386-2.834-1.564c-0.047-0.013-0.094-0.01-0.134,0.002
	c-0.008-0.021-0.011-0.047-0.023-0.065c-0.005-0.036-0.023-0.079-0.05-0.126c-1.004-1.551-2.002-3.173-2.374-4.98
	c1.5-0.513,2.85-1.268,4.29-2.308c2.134-1.538,4.358-2.643,5.862-4.902c1.21-1.814,2.032-3.767,2.301-5.89
	c0.912,1.836,2.342,3.734,4.235,4.434c2.457,0.909,4.031-0.614,5.543-2.397c0.243-0.279-0.141-0.688-0.398-0.445
	c-0.005,0-0.005-0.01-0.008-0.01c-1.896,0.147-3.819-0.56-5.364-1.631c-0.105-0.071-0.207-0.133-0.316-0.198
	c0.128-0.01,0.257-0.019,0.392-0.044c1.415-0.29,2.76-0.939,3.767-2.002c2.183-2.309,2.29-5.437,2.298-8.446
	c0.002-0.389-0.602-0.392-0.604-0.003v0.024c-0.026,0.024-0.04,0.058-0.052,0.089c-0.93,2.581-3.845,4.049-6.19,5.121
	c-1.237,0.564-2.408,1.168-3.187,2.147c0.013-0.604-0.058-1.195-0.394-1.691c-0.491-0.727-1.224-1.069-1.963-1.501
	c-0.342-0.196-0.645,0.329-0.309,0.523c0.709,0.416,1.702,0.784,1.924,1.676c0.201,0.808,0.081,1.594,0.019,2.397
	c-0.028,0.084-0.058,0.162-0.081,0.251c-0.013,0.045-0.01,0.092,0,0.136c-0.682,2.141-4.313,2.638-6.177,2.7
	c-2.162,0.062-4.407-0.071-6.517-0.552c-3.532-0.805-6.983-2.421-9.655-4.917L14.898,17.71z"/>
<g id="wing_x5F_onama_x5F_right_x5F_fix">
	<path id="wing_x5F_onama_x5F_right" fill="#020202" d="M25.217,11.457c4.264-1.547,9.94-3.547,10.007-8.473
		c0.003-0.036,0.013-0.063,0.021-0.092c-0.002-0.008-0.006-0.018-0.008-0.023c-0.134-0.364,0.444-0.521,0.58-0.157
		c0.939,2.53,2.11,4.502,1.639,7.333c-0.394,2.377-1.132,5.278-2.756,7.127c-1.777,2.039-4.98,3.109-7.537,3.626
		c-3.062,0.622-6.227,0.324-9.327,0.267l-2.936-3.357C18.093,13.374,25.217,11.459,25.217,11.457z"/>
</g>
<g id="wing_x5F_onama_x5F_left_x5F_fix">
	<path id="wing_x5F_onama_x5F_left" fill="#020202" d="M25.218,11.459c1.066-4.254,0.727-8.026-2.421-11.365
		c-0.264-0.275-0.67,0.12-0.452,0.402c0.008,0.003,0,0.015,0.008,0.021c0.669,1.783-0.096,4.416-1.064,5.934
		c-0.983,1.55-2.46,2.423-3.597,3.812c-1.756,2.131-2.638,4.719-2.794,7.446l2.936,3.357C22.987,19.209,25.217,11.459,25.218,11.459
		z"/>
</g>
</svg>
